<?xml version="1.0" encoding="UTF-8"?>
<svg xmlns="http://www.w3.org/2000/svg" viewBox="0 0 1254 1254" role="img" aria-labelledby="title desc">
  <title id="title">Kura face logo</title>
  <desc id="desc">Smoothed vector trace of the Kura mascot face.</desc>
  <g id="cream" fill="#F8ECCB" transform="translate(0 1254) scale(0.1 -0.1)">
    <path d="M6200 8930 c-14 -11 -29 -20 -34 -20 -5 0 -42 -27 -83 -60 -40 -33
    -76 -60 -81 -60 -10 0 -221 -212 -235 -237 -7 -11 -38 -51 -69 -89 -32 -37
    -58 -71 -58 -76 0 -4 -11 -24 -26 -45 -38 -56 -81 -151 -94 -208 -6 -27 -17
    -61 -23 -74 -16 -32 -16 -319 -1 -352 79 -165 90 -182 146 -234 32 -30 70 -61
    85 -69 81 -43 157 -77 186 -83 17 -3 37 -10 44 -15 6 -5 43 -12 82 -15 70 -6
    70 -6 73 -62 3 -48 6 -56 23 -56 19 0 20 7 20 194 0 194 0 194 -40 216 -22 12
    -60 34 -85 50 -46 30 -85 53 -130 77 -135 72 -68 212 72 148 44 -20 55 -26
    120 -68 57 -37 68 -26 68 61 0 73 -26 117 -70 117 -5 0 -10 5 -10 10 0 6 -12
    15 -26 20 -14 6 -40 21 -58 35 -18 14 -36 25 -41 25 -28 0 -95 73 -95 104 0
    74 81 113 141 69 13 -10 32 -22 41 -28 9 -5 35 -23 57 -38 58 -42 61 -36 61
    142 0 177 14 211 86 211 61 0 69 -23 72 -202 4 -179 8 -188 65 -144 19 14 37
    26 41 26 4 0 22 11 40 25 48 36 122 36 136 -1 27 -69 15 -101 -52 -144 -35
    -21 -84 -55 -110 -74 -26 -20 -52 -36 -56 -36 -39 0 -62 -42 -62 -115 0 -98
    21 -103 125 -28 111 79 205 66 205 -29 0 -29 -48 -88 -72 -88 -5 0 -22 -8 -36
    -19 -27 -19 -82 -51 -137 -81 -91 -49 -85 -31 -85 -241 0 -131 3 -190 12 -195
    18 -11 38 26 38 71 0 42 0 42 76 49 43 3 82 10 88 15 6 5 31 14 56 21 56 14
    150 59 150 71 0 5 7 9 15 9 18 0 165 146 182 180 53 111 57 124 61 250 5 134
    -8 249 -33 296 -8 16 -15 34 -15 41 0 22 -99 205 -134 248 -20 24 -36 49 -36
    55 0 15 -318 333 -352 351 -14 8 -56 38 -94 66 -75 57 -96 63 -134 33z M2912
    8282 c-17 -16 -34 -42 -37 -58 -3 -16 -10 -37 -16 -46 -11 -22 -12 -230 -1
    -243 5 -6 14 -53 21 -105 7 -52 16 -99 21 -105 4 -5 13 -38 20 -72 16 -79 70
    -116 70 -48 0 7 7 15 15 19 8 3 15 11 15 17 0 15 73 113 178 238 45 55 82 102
    82 106 0 4 27 37 60 73 33 37 60 70 60 73 0 11 -100 74 -140 89 -31 11 -83 33
    -145 61 -81 36 -165 36 -203 1z M9630 8299 c-24 -5 -58 -15 -76 -24 -18 -8
    -36 -15 -40 -15 -16 0 -241 -117 -268 -139 -23 -19 -22 -21 37 -94 57 -71 149
    -195 157 -212 3 -6 24 -35 48 -66 23 -31 42 -59 42 -63 0 -3 16 -29 35 -56 19
    -27 35 -52 35 -56 0 -3 14 -26 31 -51 36 -52 54 -43 79 41 7 23 16 46 20 51 4
    6 11 26 15 45 4 19 13 49 20 65 31 70 68 307 62 400 -9 162 -55 202 -197 174z
    M5230 6763 c-79 -2 -149 -8 -154 -13 -6 -6 -42 -10 -80 -10 -120 0 -450 -21
    -471 -30 -11 -5 -96 -14 -190 -20 -93 -7 -174 -15 -180 -20 -5 -4 -66 -13
    -135 -19 -69 -7 -136 -16 -150 -21 -14 -5 -72 -16 -130 -24 -119 -17 -268 -46
    -352 -69 -31 -9 -78 -19 -105 -23 -26 -3 -52 -10 -58 -14 -5 -4 -39 -13 -75
    -20 -36 -7 -69 -16 -75 -20 -5 -4 -28 -11 -51 -14 -22 -4 -53 -13 -67 -21 -14
    -7 -51 -19 -82 -25 -31 -6 -68 -18 -83 -26 -15 -8 -34 -14 -42 -14 -8 0 -27
    -6 -42 -14 -14 -8 -43 -19 -65 -26 -21 -6 -47 -15 -58 -20 -11 -4 -35 -13 -52
    -20 -29 -11 -80 -68 -118 -132 -5 -9 -35 -52 -65 -95 -87 -125 -200 -294 -200
    -299 0 -3 -13 -25 -30 -49 -16 -24 -30 -47 -30 -50 0 -4 -13 -24 -29 -44 -15
    -20 -34 -48 -42 -62 -14 -26 -97 -165 -131 -217 -9 -15 -36 -60 -60 -101 -24
    -41 -53 -90 -65 -110 -12 -20 -28 -47 -35 -61 -7 -14 -27 -45 -43 -70 -16 -25
    -37 -61 -47 -80 -10 -19 -33 -62 -52 -95 -43 -74 -44 -95 -6 -138 17 -19 30
    -38 30 -42 0 -4 13 -21 29 -38 16 -18 53 -60 83 -94 226 -261 323 -365 595
    -633 169 -169 333 -327 363 -352 30 -25 98 -83 150 -128 52 -45 106 -89 120
    -98 14 -9 55 -40 91 -69 36 -29 70 -53 74 -53 5 0 35 -20 66 -45 32 -25 60
    -45 64 -45 3 0 29 -17 58 -38 29 -21 63 -43 77 -50 14 -7 48 -26 75 -42 107
    -63 318 -170 333 -170 6 0 25 -7 44 -16 18 -9 49 -25 68 -34 19 -10 51 -21 70
    -25 19 -4 40 -11 45 -15 6 -5 33 -14 60 -21 28 -6 55 -15 60 -19 20 -15 308
    -85 445 -109 52 -9 100 -19 105 -22 6 -4 57 -12 115 -19 58 -7 112 -16 120
    -21 9 -4 81 -13 160 -20 80 -6 150 -15 155 -20 6 -4 114 -12 240 -19 127 -6
    246 -16 265 -22 49 -16 1209 -17 1242 -1 13 6 128 16 257 23 129 6 241 16 250
    20 9 5 77 14 151 20 74 6 139 15 145 19 5 4 56 13 113 20 56 7 115 16 130 21
    15 5 63 16 107 25 100 18 223 47 295 69 161 49 227 71 250 83 14 7 31 13 39
    13 8 0 32 8 55 19 23 10 67 30 98 45 31 14 61 26 65 26 8 0 55 24 193 100 69
    38 72 40 208 130 62 41 120 80 129 85 24 15 212 156 283 212 130 103 399 347
    583 530 113 111 530 560 537 577 3 7 51 64 108 128 56 64 102 119 102 124 0 4
    8 16 17 26 18 20 13 34 -58 153 -16 28 -37 66 -47 85 -10 19 -31 55 -47 80
    -31 48 -55 89 -77 130 -7 14 -27 48 -45 77 -18 29 -33 56 -33 62 0 11 -74 71
    -88 71 -5 0 -30 16 -55 35 -25 19 -50 35 -55 35 -48 0 -390 380 -392 436 -2
    44 -47 65 -141 68 -147 5 -237 55 -335 187 -19 26 -48 52 -66 59 -18 7 -42 16
    -53 21 -36 16 -159 60 -195 70 -19 6 -44 14 -55 19 -11 5 -63 23 -115 40 -52
    16 -102 34 -110 39 -9 5 -43 14 -75 21 -33 8 -65 17 -71 21 -6 5 -35 14 -65
    20 -30 6 -58 15 -64 19 -5 4 -41 13 -80 20 -38 7 -74 16 -80 20 -5 4 -41 13
    -80 19 -38 7 -83 17 -100 22 -58 20 -418 83 -610 107 -71 10 -134 20 -140 23
    -5 4 -86 12 -180 19 -93 6 -179 16 -190 20 -11 5 -121 14 -245 20 -124 6 -243
    13 -265 16 -144 19 -1106 28 -1655 17z m-486 -321 c3 -5 39 -12 81 -16 75 -7
    194 -40 272 -76 24 -11 45 -20 49 -20 3 0 29 -15 57 -33 29 -19 63 -40 77 -49
    41 -25 153 -129 341 -314 96 -96 179 -174 184 -174 5 0 18 -9 29 -19 58 -54
    208 -111 291 -111 19 0 37 -4 40 -10 4 -6 72 -10 170 -10 98 0 166 4 170 10 3
    6 21 10 40 10 45 0 130 19 163 36 15 8 31 14 36 14 28 0 169 112 296 235 234
    227 294 280 371 331 96 63 206 118 266 133 26 7 57 17 68 22 27 12 140 29 192
    29 23 0 44 4 47 9 8 12 210 14 265 2 25 -6 95 -15 156 -21 60 -6 114 -15 120
    -19 5 -5 39 -14 75 -21 36 -6 70 -15 75 -20 6 -4 23 -10 40 -14 70 -17 244
    -105 318 -162 31 -24 61 -44 65 -44 10 0 222 -215 222 -225 0 -4 57 -71 128
    -150 204 -231 480 -560 536 -639 16 -23 51 -66 77 -97 27 -31 49 -60 49 -65 0
    -4 7 -14 16 -23 90 -92 210 -266 199 -288 -7 -13 -115 -133 -241 -267 -126
    -134 -247 -265 -269 -291 -68 -83 -429 -445 -443 -445 -7 0 -29 -10 -50 -23
    -20 -13 -57 -29 -82 -37 -25 -7 -49 -16 -55 -19 -11 -7 -128 -37 -195 -52
    -132 -28 -746 -19 -785 11 -5 4 -30 11 -55 15 -47 7 -241 97 -261 121 -6 8
    -18 14 -25 14 -8 0 -14 5 -14 10 0 6 -10 14 -23 19 -25 10 -336 301 -483 452
    -117 120 -210 209 -219 209 -3 0 -27 17 -53 39 -26 21 -59 45 -73 52 -15 8
    -55 29 -89 47 -34 17 -67 32 -74 32 -6 0 -23 6 -38 14 -15 8 -60 19 -100 25
    -40 6 -119 18 -174 26 -165 24 -237 21 -554 -26 -41 -6 -79 -14 -85 -19 -5 -4
    -23 -10 -40 -14 -16 -4 -54 -18 -83 -32 -29 -13 -54 -24 -57 -24 -32 0 -188
    -139 -465 -414 -290 -288 -416 -406 -433 -406 -3 0 -25 -13 -49 -29 -58 -39
    -173 -87 -228 -96 -25 -4 -49 -11 -55 -15 -50 -39 -769 -39 -820 -1 -5 4 -43
    13 -82 20 -40 7 -75 16 -78 21 -3 4 -27 13 -54 20 -27 6 -72 27 -101 46 -28
    19 -57 34 -63 34 -12 0 -427 420 -427 433 0 4 -35 44 -79 90 -311 326 -421
    449 -421 471 0 7 34 52 75 99 41 47 75 88 75 91 0 3 42 56 93 116 233 278 262
    313 266 324 2 6 48 61 100 121 53 61 104 121 113 135 16 26 169 203 238 277
    22 23 40 45 40 49 0 13 179 200 240 250 36 29 73 60 83 69 9 8 19 15 21 15 2
    0 34 18 71 40 36 23 78 45 93 51 15 5 41 16 57 23 74 34 104 44 160 56 33 8
    65 17 70 21 6 5 62 14 125 20 63 7 119 16 124 20 12 11 343 11 350 1z m1861
    -2293 c39 -6 75 -14 80 -19 6 -4 21 -10 35 -14 110 -28 148 -217 63 -317 -7
    -8 -13 -19 -13 -24 0 -42 -173 -200 -272 -249 -58 -28 -58 -28 -58 -86 0 -90
    44 -132 232 -222 55 -26 225 5 290 52 15 11 30 20 33 20 3 0 31 25 63 55 98
    96 204 81 219 -32 5 -41 -65 -156 -105 -170 -9 -4 -35 -21 -57 -38 -212 -166
    -517 -160 -734 13 -30 24 -47 32 -56 26 -277 -202 -473 -214 -769 -47 -62 35
    -166 161 -166 201 0 118 116 146 214 52 35 -33 66 -60 71 -60 5 0 16 -7 26
    -16 29 -26 151 -64 209 -64 216 -1 404 237 249 315 -76 38 -239 175 -239 201
    0 4 -11 21 -24 38 -13 17 -27 42 -31 56 -4 14 -12 30 -17 37 -22 27 -22 123 0
    167 46 91 118 119 362 140 70 6 317 -4 395 -15z M4505 5510 c-3 -4 -24 -11
    -49 -14 -24 -4 -52 -13 -62 -21 -11 -8 -25 -15 -33 -15 -8 0 -29 -11 -47 -25
    -18 -14 -37 -25 -41 -25 -24 0 -122 -129 -162 -212 -119 -251 70 -643 330
    -684 22 -4 42 -11 45 -15 7 -12 187 -12 200 0 5 4 32 14 59 21 28 7 62 22 77
    32 14 10 31 18 36 18 15 0 152 140 152 155 0 7 9 24 20 38 11 14 20 31 20 39
    0 7 8 27 17 43 21 36 26 282 7 306 -6 8 -17 30 -23 49 -39 120 -225 278 -348
    296 -26 3 -52 10 -58 14 -13 10 -134 10 -140 0z m180 -271 c187 -88 202 -361
    25 -461 -176 -100 -390 23 -390 224 0 100 72 218 142 233 15 4 30 11 33 16 12
    18 143 10 190 -12z M8010 5511 c-8 -5 -35 -11 -59 -15 -357 -54 -500 -565
    -236 -844 373 -396 1033 13 844 523 -55 151 -225 304 -356 322 -24 3 -46 10
    -49 14 -7 11 -124 11 -144 0z m191 -277 c186 -93 192 -354 11 -460 -124 -73
    -345 -3 -369 118 -3 16 -10 31 -14 34 -53 32 49 304 114 304 5 0 23 6 40 14
    68 31 144 28 218 -10z"/>
  </g>
  <g id="blue" fill="#223A70" transform="translate(0 1254) scale(0.1 -0.1)">
    <path d="M9900 9294 c-25 -3 -54 -8 -65 -13 -11 -5 -59 -14 -108 -21 -48 -7
    -89 -16 -92 -20 -3 -5 -31 -14 -63 -21 -31 -7 -66 -18 -77 -25 -11 -6 -33 -15
    -50 -18 -16 -4 -43 -13 -60 -20 -62 -29 -90 -40 -100 -41 -19 -2 -332 -162
    -379 -193 -26 -18 -51 -32 -55 -32 -4 0 -28 -16 -53 -35 -25 -19 -48 -31 -52
    -28 -3 3 -8 -2 -12 -11 -3 -9 -12 -16 -18 -16 -7 0 -36 -22 -66 -48 -53 -48
    -53 -48 -9 -82 24 -19 57 -50 74 -67 16 -18 34 -33 40 -33 6 0 63 -52 127
    -115 131 -130 111 -124 208 -60 62 41 335 176 365 180 6 0 23 6 38 13 15 6 40
    15 55 18 15 3 41 12 58 20 16 7 50 16 75 20 24 4 49 11 55 15 17 14 213 14
    227 0 6 -6 19 -11 28 -11 30 0 96 -83 104 -131 4 -24 12 -50 19 -58 16 -20 15
    -459 -1 -492 -6 -13 -16 -62 -22 -108 -6 -46 -15 -89 -20 -95 -4 -6 -14 -40
    -21 -76 -6 -36 -15 -69 -19 -75 -5 -5 -14 -32 -21 -60 -8 -27 -20 -61 -27 -75
    -7 -14 -13 -31 -13 -38 0 -6 -9 -29 -20 -49 -11 -21 -20 -45 -20 -53 0 -9 -7
    -26 -16 -38 -8 -12 -13 -22 -10 -22 2 0 -10 -29 -29 -65 -33 -65 -33 -65 16
    -162 27 -53 49 -103 49 -111 0 -48 39 -72 118 -72 47 0 88 -6 104 -14 29 -15
    88 44 88 88 0 8 4 17 8 20 14 9 102 195 123 261 6 22 18 49 25 60 6 11 15 36
    19 55 4 19 12 41 17 48 6 6 7 12 3 12 -4 0 -3 6 2 13 6 6 16 34 22 62 7 27 16
    54 20 60 5 5 14 39 21 75 7 36 16 70 20 75 4 6 13 42 20 80 7 39 16 75 20 80
    5 6 13 55 20 110 6 55 17 111 23 124 16 33 17 582 1 602 -6 8 -17 49 -24 92
    -7 43 -17 80 -21 83 -5 3 -9 12 -9 20 0 106 -212 353 -330 384 -25 7 -50 16
    -56 21 -13 10 -204 19 -274 13z M2580 9280 c-8 -5 -37 -15 -63 -22 -26 -7 -70
    -30 -98 -50 -27 -21 -53 -38 -57 -38 -26 0 -119 -128 -167 -230 -20 -41 -40
    -82 -45 -91 -4 -8 -13 -42 -19 -75 -7 -32 -16 -68 -21 -79 -39 -86 -39 -723
    -1 -810 5 -11 14 -60 21 -110 6 -49 15 -94 19 -100 5 -5 14 -46 21 -90 6 -44
    16 -85 20 -90 5 -6 14 -33 20 -60 7 -28 18 -63 25 -80 8 -16 16 -43 20 -60 7
    -30 14 -48 53 -135 11 -25 24 -58 28 -75 4 -16 15 -46 25 -65 9 -19 39 -79 64
    -132 56 -116 55 -116 96 -30 18 37 44 85 59 107 14 22 32 51 39 65 29 58 103
    183 117 201 11 13 10 21 -6 52 -11 20 -20 42 -20 48 0 5 -8 29 -19 52 -10 23
    -22 58 -26 77 -4 19 -11 40 -15 45 -7 9 -40 141 -44 175 -1 9 -5 20 -9 26 -3
    6 -11 53 -18 105 -6 52 -16 104 -22 116 -14 31 -15 426 -1 444 6 8 15 37 19
    64 4 28 12 59 18 70 6 11 12 25 13 32 4 23 44 71 86 105 45 35 234 50 270 21
    7 -6 36 -14 63 -18 28 -4 64 -13 80 -20 17 -8 41 -17 55 -20 14 -4 41 -14 60
    -22 56 -24 143 -64 165 -76 42 -22 50 -26 65 -31 8 -3 38 -19 65 -36 119 -71
    106 -73 210 27 51 48 110 102 132 119 187 154 196 164 176 186 -9 10 -20 18
    -25 18 -5 0 -29 14 -53 30 -24 17 -48 30 -54 30 -6 0 -11 4 -11 10 0 5 -15 17
    -32 25 -18 8 -55 28 -83 44 -142 81 -448 227 -468 222 -4 -1 -18 5 -30 14 -12
    8 -28 15 -37 15 -8 0 -27 6 -42 14 -15 8 -53 20 -85 27 -32 7 -62 16 -68 20
    -5 4 -48 13 -95 20 -47 7 -89 16 -95 21 -12 11 -256 9 -275 -2z M5975 9218
    c-71 -5 -134 -13 -139 -19 -6 -5 -23 -9 -38 -9 -43 0 -171 -21 -195 -33 -12
    -5 -29 -7 -37 -4 -8 3 -18 2 -20 -2 -3 -5 -28 -11 -55 -15 -28 -4 -53 -11 -57
    -17 -3 -6 -15 -9 -25 -6 -10 3 -21 1 -24 -3 -3 -5 -31 -14 -63 -20 -31 -7 -61
    -16 -67 -20 -5 -4 -23 -10 -40 -14 -16 -4 -48 -16 -72 -27 -23 -10 -48 -19
    -55 -19 -7 0 -26 -9 -43 -20 -16 -11 -36 -20 -43 -20 -22 0 -249 -108 -258
    -122 -3 -4 -11 -8 -19 -8 -7 0 -32 -12 -55 -27 -23 -16 -45 -28 -49 -28 -3 -1
    -25 -13 -48 -28 -24 -15 -46 -27 -49 -27 -4 0 -30 -17 -58 -38 -28 -21 -62
    -45 -76 -52 -14 -7 -44 -28 -67 -46 -23 -19 -45 -34 -49 -34 -7 0 -150 -110
    -190 -147 -14 -13 -28 -23 -33 -23 -28 0 -590 -575 -636 -651 -5 -9 -39 -53
    -75 -97 -85 -106 -174 -223 -179 -236 -2 -6 -24 -36 -48 -67 -23 -30 -43 -59
    -43 -63 0 -4 -18 -31 -40 -60 -22 -29 -40 -56 -40 -59 0 -4 -16 -29 -35 -56
    -19 -26 -35 -52 -35 -56 0 -4 -17 -30 -37 -58 -21 -28 -46 -67 -55 -87 -10
    -19 -23 -44 -30 -55 -38 -61 -73 -120 -73 -125 -1 -3 -9 -21 -20 -40 -11 -19
    -20 -37 -20 -40 0 -3 -6 -15 -13 -28 -16 -27 8 -43 33 -22 9 7 18 10 22 7 3
    -4 11 -3 17 2 6 5 35 14 65 21 30 7 66 19 80 26 14 8 37 14 51 14 14 0 36 6
    50 13 14 8 55 19 90 26 36 7 70 16 75 20 6 4 44 14 85 21 41 7 80 16 85 20 6
    4 48 13 95 20 47 8 90 17 95 21 6 4 51 13 100 19 50 6 97 15 106 20 10 5 66
    14 125 20 60 6 117 16 127 21 11 6 36 9 56 8 20 -2 41 0 46 3 6 3 54 9 108 13
    53 4 100 12 103 17 3 5 32 8 63 7 32 -1 62 0 67 3 5 3 117 11 249 18 135 7
    250 17 264 23 36 18 1975 17 1993 0 7 -8 38 -13 78 -13 91 0 432 -20 450 -27
    8 -3 43 -4 77 -3 33 0 64 -3 67 -8 3 -5 54 -13 113 -17 60 -4 112 -10 118 -13
    5 -3 25 -5 43 -3 18 1 38 -2 45 -7 7 -5 63 -15 126 -21 63 -7 122 -17 130 -21
    9 -5 56 -14 106 -20 49 -6 94 -15 100 -19 5 -4 51 -14 100 -21 50 -7 95 -16
    100 -20 6 -4 41 -13 80 -19 38 -7 74 -16 80 -20 5 -5 42 -14 80 -21 39 -7 75
    -16 80 -20 6 -4 40 -13 78 -20 37 -7 70 -16 72 -20 3 -5 31 -14 63 -20 31 -7
    62 -16 68 -21 6 -5 13 -7 16 -4 3 3 18 -1 34 -10 16 -8 36 -15 44 -15 8 0 27
    -6 42 -14 15 -8 42 -17 60 -21 18 -4 52 -16 75 -26 23 -11 47 -19 54 -19 11 0
    69 -24 133 -56 33 -17 56 -5 56 30 0 12 5 27 12 34 9 9 4 19 -24 45 -55 48
    -146 117 -155 117 -5 0 -14 9 -21 20 -7 11 -17 20 -23 20 -5 0 -34 18 -64 40
    -30 22 -58 40 -63 40 -5 0 -30 16 -56 35 -25 20 -46 33 -46 30 0 -3 -20 8 -44
    25 -25 16 -50 30 -57 30 -7 0 -27 11 -45 25 -18 14 -36 25 -41 25 -5 0 -26 12
    -48 27 -22 15 -79 46 -127 70 -127 63 -129 78 -7 62 41 -6 79 -14 84 -18 6 -4
    36 -14 68 -21 32 -7 60 -17 63 -22 3 -4 13 -8 22 -8 10 0 35 -9 57 -20 22 -11
    44 -20 50 -20 18 0 296 -142 347 -178 26 -17 50 -32 54 -32 4 0 31 -18 61 -40
    53 -41 73 -44 73 -12 0 20 -156 336 -187 378 -13 17 -23 36 -23 42 0 5 -11 27
    -25 49 -14 21 -26 43 -26 48 0 6 -16 31 -35 58 -19 26 -34 49 -34 52 0 3 -18
    30 -40 60 -22 30 -40 58 -40 63 0 9 -75 113 -109 150 -12 12 -21 25 -21 29 0
    3 -20 30 -45 59 -25 28 -45 56 -45 60 0 4 -7 14 -14 23 -8 9 -55 61 -104 116
    -50 55 -106 116 -126 134 -20 19 -36 39 -36 44 0 12 -66 77 -77 77 -5 0 -29
    21 -53 46 -25 25 -85 82 -135 126 -49 43 -99 88 -110 98 -12 11 -24 20 -29 20
    -5 0 -30 18 -56 40 -26 22 -53 40 -59 40 -5 0 -15 9 -21 20 -6 11 -16 20 -22
    20 -6 0 -26 11 -44 25 -18 14 -37 25 -42 25 -6 0 -12 7 -16 15 -3 8 -10 15
    -15 15 -9 0 -125 68 -176 104 -16 11 -30 19 -30 17 0 -3 -19 8 -42 22 -24 15
    -48 27 -55 27 -7 0 -24 9 -38 20 -14 11 -32 20 -40 20 -8 0 -26 9 -40 20 -14
    11 -32 20 -40 20 -8 0 -28 8 -45 18 -16 10 -50 24 -74 31 -25 7 -54 19 -65 26
    -12 7 -37 16 -56 20 -19 4 -44 14 -55 21 -11 8 -26 14 -35 14 -8 0 -26 6 -40
    13 -14 7 -54 19 -90 27 -36 7 -71 17 -77 23 -7 5 -13 6 -13 2 0 -4 -6 -3 -12
    2 -7 6 -49 16 -93 23 -44 6 -84 16 -90 20 -5 4 -55 13 -110 20 -55 6 -109 16
    -120 21 -53 24 -513 34 -760 17z m318 -302 c3 -7 23 -22 44 -33 22 -12 53 -34
    69 -49 76 -73 113 -104 123 -104 12 0 174 -164 180 -183 2 -6 33 -47 68 -89
    36 -43 61 -78 56 -78 -4 -1 3 -10 16 -20 13 -11 20 -20 15 -20 -4 0 -3 -5 4
    -12 7 -7 12 -20 12 -30 0 -9 6 -21 14 -25 8 -4 15 -12 17 -18 3 -19 11 -40 27
    -75 9 -19 17 -46 19 -60 1 -14 6 -34 11 -45 5 -11 15 -33 21 -48 14 -35 15
    -263 1 -272 -5 -3 -10 -15 -10 -26 0 -11 -5 -30 -12 -42 -7 -12 -13 -26 -13
    -32 -2 -20 -19 -50 -32 -58 -7 -5 -11 -12 -8 -17 3 -5 -4 -14 -15 -20 -11 -6
    -20 -16 -20 -23 0 -17 -79 -97 -96 -97 -7 0 -26 -12 -43 -26 -17 -14 -38 -27
    -47 -28 -8 -1 -20 -9 -24 -17 -5 -8 -13 -13 -17 -12 -13 4 -56 -8 -88 -23 -16
    -8 -68 -18 -115 -22 -85 -7 -85 -7 -90 -61 -12 -128 -25 -55 -23 126 1 127 6
    188 13 188 6 0 14 5 18 11 4 5 28 20 55 32 26 12 47 26 47 31 0 5 13 12 30 16
    16 4 34 14 39 23 5 9 13 16 18 15 14 -5 95 61 103 83 32 83 -106 168 -158 97
    -7 -10 -16 -17 -20 -17 -16 3 -50 -15 -55 -30 -4 -9 -10 -15 -14 -14 -4 1 -22
    -6 -40 -15 -18 -9 -33 -17 -35 -17 -23 0 4 155 29 168 15 8 33 21 40 29 6 8
    18 15 25 17 14 2 29 12 68 48 11 10 31 20 46 24 14 4 28 13 31 20 3 8 9 12 13
    9 18 -11 38 32 36 79 -3 82 -78 124 -139 76 -14 -11 -29 -20 -35 -20 -5 0 -29
    -16 -53 -35 -24 -19 -47 -35 -51 -35 -3 0 -8 69 -10 154 -4 180 -22 220 -98
    215 -83 -6 -100 -43 -100 -221 0 -87 -3 -158 -6 -158 -4 0 -26 16 -50 35 -23
    19 -45 35 -49 35 -4 0 -14 9 -23 21 -28 34 -103 34 -135 1 -42 -45 -43 -132
    -2 -132 8 0 15 -7 15 -15 0 -9 12 -20 28 -26 15 -6 27 -9 27 -7 0 2 10 -6 22
    -17 41 -38 57 -49 70 -51 7 -1 27 -14 44 -28 17 -14 37 -26 45 -26 11 0 14
    -18 14 -84 0 -85 0 -85 -47 -58 -27 14 -52 32 -56 39 -4 7 -13 13 -18 13 -6 0
    -24 10 -41 21 -66 48 -168 6 -168 -68 0 -30 62 -102 91 -107 15 -2 64 -31 92
    -55 10 -8 25 -16 33 -17 9 -1 23 -9 32 -17 10 -8 32 -20 50 -28 32 -14 32 -14
    31 -204 -1 -105 -5 -169 -8 -144 -9 66 -21 75 -99 82 -84 7 -112 13 -148 32
    -16 8 -38 15 -48 15 -10 0 -24 7 -30 16 -6 8 -19 16 -28 17 -8 2 -32 15 -52
    30 -20 16 -36 25 -36 20 0 -4 -7 3 -16 15 -8 12 -22 22 -30 22 -8 0 -13 4 -9
    10 3 5 -6 17 -20 26 -13 9 -23 20 -20 24 3 5 -1 12 -8 17 -19 11 -71 123 -74
    158 -2 16 -8 34 -13 39 -12 12 -14 233 -2 240 5 3 9 28 11 56 1 28 11 67 22
    86 10 19 19 45 19 58 0 13 9 35 20 49 11 14 20 31 20 39 0 8 14 33 31 56 17
    23 27 42 23 42 -5 0 2 7 14 16 12 8 20 19 17 24 -3 5 4 14 15 20 11 6 20 16
    20 23 0 34 367 390 435 423 19 9 39 22 46 30 15 18 95 19 102 0z M10955 6762
    c-6 -5 -56 -14 -111 -21 -57 -6 -120 -20 -142 -31 -23 -11 -45 -20 -49 -20
    -42 0 -228 -117 -214 -134 12 -14 35 -165 27 -173 -14 -15 17 -43 47 -43 36
    -1 112 -16 142 -29 11 -5 40 -15 65 -22 141 -41 267 -149 229 -195 -13 -16
    -91 -12 -114 6 -5 4 -39 13 -75 20 -36 6 -69 15 -75 20 -5 4 -53 15 -105 24
    -52 10 -105 22 -117 28 -23 11 -43 4 -43 -17 0 -7 -18 -36 -41 -65 -40 -51
    -40 -51 -23 -78 10 -15 25 -39 34 -54 101 -180 329 -390 510 -469 14 -6 39
    -17 55 -24 17 -7 50 -22 75 -33 25 -12 77 -26 115 -32 39 -6 81 -17 94 -23 42
    -21 68 108 31 158 -4 6 -13 42 -20 80 -7 39 -16 75 -20 80 -3 6 -12 30 -19 55
    -7 25 -18 59 -26 75 -18 42 -38 89 -40 95 0 3 -9 21 -20 40 -11 19 -19 38 -20
    42 0 3 -3 10 -7 14 -27 26 24 124 65 124 8 0 34 16 59 35 25 19 48 31 52 28 3
    -3 8 2 12 11 3 9 13 16 21 16 25 0 287 270 320 330 30 54 30 80 -1 80 -6 0
    -22 6 -36 13 -14 7 -54 19 -90 27 -36 7 -70 17 -75 21 -6 4 -62 13 -125 20
    -63 6 -123 15 -132 20 -22 11 -201 12 -213 1z M9953 6660 c-16 -7 -23 -21 -28
    -55 -4 -25 -11 -48 -16 -50 -4 -3 -6 -12 -3 -19 3 -8 1 -17 -5 -20 -5 -4 -13
    -27 -17 -51 -3 -25 -10 -48 -15 -50 -4 -3 -5 -13 -2 -21 3 -8 0 -27 -8 -40
    -23 -44 82 -185 149 -200 15 -3 37 -10 48 -16 15 -7 27 -7 40 1 11 6 35 17 55
    25 43 16 104 88 114 133 3 18 11 35 16 38 11 8 12 122 0 129 -4 3 -11 23 -15
    45 -17 109 -199 197 -313 151z"/>
  </g>
  <g id="ink" fill="#000000" transform="translate(0 1254) scale(0.1 -0.1)">
    <path d="M9935 9630 c-102 -8 -140 -15 -305 -56 -90 -23 -282 -84 -325 -104
    -11 -5 -49 -21 -85 -36 -68 -28 -363 -176 -442 -222 -98 -57 -193 -115 -198
    -121 -3 -4 -30 -22 -60 -41 -30 -19 -57 -37 -60 -40 -3 -3 -30 -21 -60 -40
    -30 -19 -56 -38 -58 -42 -6 -13 -44 -9 -61 6 -93 84 -616 331 -861 407 -211
    66 -365 102 -535 125 -60 8 -123 19 -140 24 -100 30 -667 37 -850 10 -33 -4
    -94 -13 -135 -19 -410 -60 -800 -193 -1193 -406 -71 -39 -141 -76 -155 -84
    -15 -8 -28 -18 -30 -23 -5 -12 -50 -10 -57 3 -15 24 -367 245 -483 303 -20 10
    -39 22 -42 26 -5 6 -80 44 -185 91 -106 47 -225 97 -225 94 0 -2 -27 7 -60 20
    -33 13 -60 21 -60 19 0 -3 -9 0 -19 6 -23 12 -103 34 -221 62 -679 159 -1137
    -162 -1270 -892 -32 -175 -31 -605 1 -785 5 -27 12 -68 15 -90 3 -22 12 -71
    20 -110 35 -171 55 -249 118 -455 59 -192 164 -455 262 -659 62 -129 72 -156
    63 -174 -12 -21 -90 -132 -111 -157 -7 -8 -29 -37 -48 -66 -169 -250 -260
    -386 -260 -389 0 -3 -26 -44 -58 -92 -70 -105 -178 -279 -218 -348 -15 -27
    -31 -52 -34 -55 -4 -3 -27 -38 -51 -78 -24 -40 -52 -85 -61 -100 -9 -15 -35
    -58 -58 -97 -23 -38 -50 -83 -60 -100 -147 -229 -107 -328 319 -798 288 -318
    991 -991 1099 -1051 9 -5 53 -39 98 -75 44 -36 91 -73 104 -81 13 -8 41 -29
    64 -45 23 -17 88 -60 144 -95 57 -36 134 -85 170 -108 92 -60 212 -120 296
    -147 39 -12 112 -39 161 -58 136 -54 361 -127 440 -142 11 -2 47 -11 80 -20
    33 -9 71 -18 85 -20 14 -2 63 -14 110 -26 47 -12 110 -23 140 -25 120 -8 287
    -25 325 -34 111 -25 173 -31 310 -35 83 -2 206 -8 275 -14 176 -15 1506 -17
    1695 -2 151 11 194 13 218 11 6 -1 58 5 114 14 57 9 123 16 149 16 25 0 53 4
    63 9 9 5 93 15 187 21 97 7 182 17 199 25 17 7 57 19 90 25 64 11 64 11 165
    36 36 8 74 17 85 19 11 3 45 12 75 20 30 9 64 18 75 20 21 3 174 56 290 100
    39 15 81 29 95 32 14 3 48 21 76 40 29 18 90 46 135 62 81 27 121 46 218 103
    25 15 53 30 61 34 21 11 192 128 217 149 7 5 37 28 68 50 114 81 266 205 403
    327 52 46 107 94 123 108 28 24 243 229 324 309 87 86 401 420 500 532 217
    245 265 307 295 373 34 75 39 144 15 214 -17 49 -13 41 -105 204 -82 145 -82
    148 5 148 127 0 175 52 175 191 0 173 -36 358 -106 547 -39 107 -40 101 29
    141 114 65 311 266 389 396 23 39 46 72 50 75 15 11 48 123 48 162 0 95 -74
    155 -260 212 -47 15 -99 31 -117 37 -17 5 -64 17 -105 25 -40 8 -95 20 -123
    26 -65 14 -417 14 -475 0 -226 -55 -217 -61 -150 108 107 272 187 552 226 800
    8 52 19 109 24 125 17 55 32 367 25 502 -9 171 -18 230 -74 450 -47 183 -205
    425 -335 512 -21 14 -51 34 -65 43 -90 60 -207 98 -336 109 -55 4 -104 8 -110
    7 -5 0 -55 -4 -110 -8z m242 -361 c7 -7 16 -9 20 -6 3 4 11 3 17 -2 6 -5 28
    -14 49 -21 47 -15 199 -160 222 -210 8 -19 19 -42 25 -50 26 -44 59 -131 65
    -177 4 -29 10 -53 15 -53 4 0 5 -11 2 -25 -2 -14 2 -33 9 -42 20 -23 20 -583
    0 -607 -8 -9 -12 -30 -9 -51 2 -19 1 -35 -2 -35 -3 0 -11 -41 -17 -91 -7 -50
    -16 -96 -21 -102 -5 -7 -15 -43 -22 -82 -7 -38 -16 -74 -20 -80 -5 -5 -14 -38
    -20 -72 -7 -35 -16 -63 -20 -63 -4 0 -13 -27 -20 -60 -7 -33 -16 -60 -20 -60
    -4 0 -11 -16 -15 -36 -3 -20 -15 -53 -26 -73 -10 -19 -22 -50 -25 -68 -3 -18
    -10 -33 -14 -33 -5 0 -11 -14 -15 -30 -5 -24 -127 -275 -139 -288 -2 -1 -16 4
    -32 13 -19 9 -57 15 -107 15 -70 0 -79 2 -84 20 -3 11 -8 20 -12 20 -4 0 -13
    20 -20 45 -7 25 -16 45 -21 45 -4 0 -13 18 -20 40 -7 22 -16 40 -19 40 -28 0
    -29 65 -1 117 17 31 30 64 30 74 0 11 4 19 8 19 5 0 15 19 22 42 7 24 18 52
    26 63 8 11 14 26 14 35 0 8 6 26 13 40 8 14 19 48 26 75 7 27 17 55 23 62 5 7
    7 17 4 22 -4 5 -2 12 3 15 5 3 12 27 16 53 4 27 11 54 17 60 6 7 8 19 5 28 -4
    8 -2 17 3 20 4 3 12 36 15 73 4 37 10 71 13 77 3 5 5 28 3 51 -1 23 2 45 8 49
    13 8 15 311 2 319 -4 3 -11 32 -14 64 -4 33 -10 70 -15 83 -6 13 -11 29 -13
    34 -6 20 -85 95 -99 95 -9 0 -21 5 -27 11 -14 14 -214 14 -222 0 -4 -4 -28
    -11 -54 -14 -27 -4 -63 -13 -80 -21 -18 -7 -52 -19 -77 -26 -25 -7 -49 -15
    -55 -20 -5 -4 -31 -13 -57 -21 -27 -7 -48 -16 -48 -20 0 -3 -18 -12 -40 -19
    -22 -7 -40 -16 -40 -20 0 -4 -18 -13 -40 -20 -22 -7 -40 -16 -40 -20 0 -4 -18
    -13 -40 -20 -22 -7 -40 -17 -40 -21 0 -5 -15 -16 -32 -24 -18 -8 -47 -24 -65
    -36 -36 -23 -63 -14 -82 27 -5 13 -23 31 -38 41 -15 10 -56 45 -90 78 -34 33
    -96 89 -137 125 -42 36 -75 67 -75 70 0 7 136 110 146 110 4 0 26 14 47 30 22
    17 46 30 53 30 7 0 13 4 13 9 0 10 -1 10 243 133 95 47 190 92 212 100 22 7
    42 16 45 19 3 4 25 12 50 19 24 7 53 18 64 26 11 8 32 14 46 14 14 0 38 7 54
    15 15 8 32 13 36 10 5 -3 11 -1 14 4 3 5 30 12 59 16 28 4 56 10 62 13 5 4 23
    5 38 3 15 -1 34 2 40 8 27 22 316 22 344 0z m-7322 0 c4 -6 19 -9 33 -8 15 1
    34 -1 42 -4 8 -3 46 -11 85 -17 38 -6 74 -15 80 -20 5 -4 26 -11 45 -15 19 -4
    49 -13 65 -20 17 -7 46 -18 65 -25 42 -14 60 -22 120 -48 25 -11 61 -25 80
    -33 19 -7 37 -16 40 -19 3 -3 21 -12 40 -20 19 -8 37 -16 40 -19 3 -3 34 -21
    70 -39 36 -18 88 -46 115 -62 28 -16 65 -36 83 -45 17 -8 32 -20 32 -25 0 -6
    4 -10 9 -10 10 0 120 -65 135 -80 5 -5 -4 -20 -25 -37 -18 -15 -65 -55 -102
    -88 -38 -33 -76 -64 -85 -70 -9 -5 -57 -49 -106 -96 -90 -87 -90 -87 -125 -64
    -60 39 -335 175 -354 175 -9 0 -17 4 -17 9 0 5 -23 14 -50 21 -28 7 -52 16
    -55 20 -3 4 -35 13 -72 20 -38 7 -72 16 -78 20 -17 13 -140 23 -195 15 -56 -8
    -170 -102 -170 -141 0 -11 -7 -27 -15 -38 -7 -10 -17 -44 -21 -75 -4 -31 -12
    -59 -18 -63 -14 -9 -13 -410 1 -441 6 -12 16 -65 22 -117 7 -52 15 -97 19
    -100 4 -3 13 -39 20 -80 7 -41 16 -77 20 -80 5 -3 14 -32 21 -65 7 -33 17 -64
    21 -70 4 -5 13 -28 20 -50 7 -22 16 -44 20 -50 29 -40 29 -74 -1 -117 -16 -24
    -29 -49 -29 -55 0 -7 -4 -13 -10 -13 -5 0 -17 -15 -25 -32 -9 -18 -29 -55 -45
    -83 -17 -27 -33 -57 -37 -65 -4 -8 -9 -17 -12 -20 -3 -3 -19 -33 -36 -67 -38
    -78 -32 -80 -83 30 -67 140 -105 228 -122 277 -6 19 -18 46 -25 60 -7 14 -15
    42 -19 63 -4 20 -11 37 -17 37 -6 0 -7 5 -4 10 4 6 2 16 -3 23 -5 7 -13 30
    -16 53 -4 22 -13 52 -21 66 -7 15 -19 59 -26 100 -6 40 -16 78 -20 83 -4 6
    -13 53 -19 105 -6 52 -16 104 -21 115 -37 84 -37 787 1 815 4 3 12 34 19 69 7
    35 16 71 21 80 5 9 25 50 45 91 67 139 83 160 185 243 26 22 64 42 130 70 14
    6 32 9 42 8 9 -1 19 3 23 9 9 14 262 14 270 -1z m3570 -49 c3 -5 38 -10 77
    -10 89 0 311 -21 318 -30 3 -3 48 -12 100 -19 52 -6 97 -16 100 -20 3 -4 30
    -11 60 -15 30 -4 68 -13 85 -21 16 -7 55 -19 85 -25 30 -6 69 -18 85 -25 17
    -7 45 -16 63 -20 17 -4 32 -10 32 -15 0 -4 17 -11 38 -15 20 -3 47 -13 60 -21
    12 -8 27 -12 32 -9 6 3 10 2 10 -4 0 -5 15 -13 33 -16 17 -4 48 -16 67 -25 19
    -10 80 -40 135 -66 55 -26 129 -65 164 -86 34 -21 67 -38 72 -38 5 0 9 -4 9
    -10 0 -5 5 -10 11 -10 6 0 30 -13 54 -30 24 -16 46 -30 50 -30 3 0 30 -18 59
    -40 29 -22 56 -40 60 -40 4 0 41 -27 81 -60 40 -33 77 -60 80 -60 11 0 191
    -159 260 -229 33 -34 63 -61 68 -61 12 0 67 -53 67 -64 0 -5 42 -52 93 -105
    103 -108 187 -204 187 -215 0 -4 32 -45 70 -91 39 -46 70 -87 70 -91 0 -4 16
    -26 35 -50 19 -23 39 -54 45 -68 5 -14 14 -26 20 -26 5 0 10 -5 10 -12 0 -6
    11 -26 25 -44 14 -18 25 -37 25 -43 0 -5 6 -14 13 -18 14 -9 38 -49 67 -108
    11 -22 34 -62 50 -90 17 -27 33 -58 36 -67 4 -10 10 -18 15 -18 5 0 8 -3 7 -7
    -2 -10 24 -66 33 -73 4 -3 8 -9 9 -15 1 -14 74 -159 82 -165 9 -7 21 -80 13
    -80 -4 0 -24 13 -45 30 -20 16 -40 27 -44 23 -3 -3 -6 -1 -6 5 0 7 -15 19 -32
    27 -59 28 -88 46 -88 54 0 4 -18 14 -40 21 -22 7 -40 16 -40 20 0 3 -17 12
    -37 19 -21 8 -40 17 -43 20 -10 12 -50 31 -65 31 -8 0 -15 4 -15 9 0 5 -20 15
    -45 22 -25 7 -45 16 -45 20 0 4 -21 12 -47 19 -26 6 -53 16 -60 22 -7 5 -17 7
    -22 4 -5 -4 -12 -2 -15 3 -4 5 -25 12 -49 16 -23 4 -47 11 -53 16 -17 13 -148
    29 -158 19 -18 -18 6 -41 93 -83 49 -25 103 -54 119 -66 16 -11 32 -18 36 -14
    3 3 6 2 6 -4 0 -6 8 -13 18 -17 9 -3 44 -22 77 -41 33 -19 70 -39 83 -45 13
    -5 44 -26 69 -45 25 -19 50 -35 55 -35 5 0 24 -11 42 -25 18 -14 38 -25 44
    -25 7 0 12 -5 12 -10 0 -6 8 -14 18 -17 9 -4 49 -33 89 -65 39 -32 75 -58 80
    -58 22 0 67 -60 55 -72 -7 -7 -12 -22 -12 -34 0 -31 -13 -37 -47 -20 -48 24
    -88 40 -97 37 -4 -1 -13 2 -20 7 -6 5 -29 15 -51 22 -22 7 -44 16 -50 20 -5 4
    -32 13 -60 19 -27 7 -54 16 -60 20 -5 5 -34 14 -63 21 -28 6 -54 16 -57 20 -3
    4 -34 13 -70 20 -36 7 -65 16 -65 20 0 4 -30 13 -67 20 -38 7 -72 16 -78 20
    -5 4 -41 13 -80 20 -38 7 -76 17 -82 22 -7 6 -19 8 -28 5 -8 -4 -17 -2 -20 2
    -2 5 -26 12 -52 16 -27 4 -54 11 -60 17 -7 6 -22 8 -33 5 -11 -3 -22 -1 -25 3
    -3 5 -34 12 -70 15 -36 4 -67 11 -70 15 -3 5 -14 6 -25 3 -11 -3 -26 -1 -33 5
    -6 5 -57 16 -112 22 -55 7 -104 16 -110 20 -5 4 -66 13 -135 20 -69 7 -129 16
    -135 20 -5 4 -86 13 -180 20 -93 6 -179 16 -190 20 -21 9 -343 30 -457 30 -44
    0 -68 4 -70 13 -6 16 -1995 18 -2006 1 -4 -6 -102 -16 -252 -24 -135 -7 -247
    -16 -250 -19 -3 -4 -79 -13 -170 -20 -91 -7 -169 -16 -175 -21 -5 -4 -71 -13
    -145 -20 -74 -7 -139 -16 -145 -20 -5 -4 -53 -13 -105 -20 -52 -7 -100 -16
    -107 -22 -6 -5 -20 -8 -30 -7 -10 1 -25 0 -33 -4 -8 -3 -51 -11 -95 -18 -44
    -6 -84 -15 -90 -19 -5 -4 -44 -13 -85 -20 -41 -7 -79 -17 -85 -21 -5 -4 -39
    -13 -75 -19 -36 -7 -70 -17 -76 -21 -6 -5 -35 -14 -65 -20 -30 -6 -58 -15 -64
    -19 -5 -4 -35 -13 -65 -21 -30 -7 -59 -16 -65 -20 -28 -19 -75 -21 -68 -2 9
    24 70 140 90 170 22 33 49 81 69 123 9 19 30 52 46 73 16 20 27 37 23 37 -3 0
    -1 6 5 13 18 21 56 81 63 100 3 9 11 17 17 17 5 0 10 5 10 12 0 6 11 26 25 44
    14 18 25 38 25 44 0 6 7 13 15 16 8 4 15 11 15 18 0 6 13 27 30 46 16 19 29
    41 30 48 0 6 5 12 10 12 6 0 14 8 17 17 12 32 200 278 241 316 12 11 22 25 22
    30 0 38 627 667 683 686 7 2 24 17 40 32 15 16 31 29 35 29 4 1 23 14 42 30
    19 17 40 30 47 30 7 0 13 4 13 8 0 9 106 82 119 82 5 0 11 3 13 8 5 11 95 72
    107 72 6 0 11 4 11 8 0 4 12 13 28 20 15 7 48 25 75 40 119 68 323 166 370
    177 15 4 27 11 27 15 0 4 21 13 46 19 25 7 56 18 67 26 12 7 39 17 60 20 20 4
    39 11 42 15 3 5 31 14 63 20 31 7 62 16 67 20 6 4 39 13 75 19 36 7 74 17 85
    21 11 5 56 14 100 20 44 6 89 15 100 20 24 10 217 30 298 30 31 0 57 4 57 10
    0 6 60 10 159 10 96 0 162 -4 166 -10z m-3397 -919 c9 -5 37 -14 62 -21 57
    -15 99 -34 277 -124 27 -13 28 -23 6 -48 -9 -10 -21 -27 -27 -37 -6 -10 -47
    -60 -91 -111 -44 -51 -82 -97 -85 -104 -3 -6 -13 -20 -22 -31 -59 -70 -108
    -135 -108 -143 0 -6 -3 -12 -7 -14 -5 -1 -21 -22 -37 -46 -35 -51 -48 -50 -60
    6 -5 23 -12 42 -16 42 -5 0 -13 39 -20 88 -7 48 -17 93 -24 101 -39 48 -3 420
    40 421 6 0 17 7 24 15 14 17 61 20 88 6z m6712 0 c0 -5 9 -11 20 -14 11 -3 23
    -13 27 -24 3 -10 11 -21 17 -25 15 -10 14 -311 -1 -329 -6 -8 -16 -48 -23 -89
    -7 -41 -16 -79 -20 -85 -4 -5 -13 -32 -20 -60 -7 -27 -16 -54 -19 -60 -3 -5
    -6 -14 -6 -20 -1 -5 -6 -22 -13 -37 -7 -16 -17 -40 -22 -54 -10 -25 -11 -24
    -55 42 -25 37 -45 70 -45 74 0 4 -16 28 -35 53 -19 25 -35 49 -35 53 0 4 -20
    34 -45 65 -25 32 -45 60 -45 64 0 6 -110 149 -144 187 -61 69 -53 76 239 214
    17 8 58 20 92 27 34 7 65 16 69 20 10 10 64 9 64 -2z m-2945 -1552 c138 -5
    264 -13 280 -18 17 -5 86 -12 154 -16 166 -9 413 -33 561 -55 36 -5 119 -16
    185 -25 66 -9 129 -20 140 -24 11 -5 65 -14 119 -21 55 -6 106 -15 115 -20 9
    -4 54 -15 101 -24 122 -23 252 -52 272 -61 10 -4 53 -15 95 -25 102 -24 193
    -49 218 -59 11 -5 67 -24 125 -41 58 -18 110 -36 115 -40 6 -4 26 -11 45 -15
    19 -4 49 -13 65 -20 17 -7 46 -18 65 -25 19 -7 49 -18 65 -25 17 -8 44 -17 60
    -21 17 -4 35 -10 40 -14 6 -4 27 -13 47 -19 21 -7 40 -21 43 -32 4 -10 11 -19
    16 -19 5 0 9 -6 9 -14 0 -25 123 -131 170 -146 25 -7 51 -18 58 -24 7 -5 56
    -10 107 -10 74 -1 95 -4 100 -16 15 -39 112 -181 132 -193 7 -4 13 -15 13 -23
    0 -39 325 -324 370 -324 6 0 10 -3 10 -8 0 -4 14 -13 30 -20 36 -16 66 -54
    112 -142 19 -36 48 -85 63 -110 32 -50 57 -92 76 -130 7 -14 25 -43 39 -65 48
    -72 90 -154 90 -173 0 -17 -120 -168 -147 -185 -7 -4 -13 -13 -13 -19 0 -5
    -60 -75 -132 -155 -73 -79 -143 -158 -155 -174 -92 -127 -775 -780 -903 -864
    -19 -13 -70 -51 -112 -86 -43 -35 -91 -73 -108 -84 -17 -11 -74 -50 -128 -86
    -203 -137 -270 -177 -402 -240 -181 -87 -297 -134 -390 -160 -25 -7 -49 -16
    -55 -19 -5 -4 -35 -13 -65 -20 -30 -7 -59 -16 -65 -20 -5 -4 -41 -13 -80 -20
    -38 -8 -74 -17 -80 -20 -5 -4 -41 -13 -80 -19 -38 -7 -79 -16 -90 -21 -11 -4
    -60 -13 -110 -20 -49 -7 -101 -16 -115 -21 -14 -4 -70 -13 -125 -19 -55 -6
    -116 -15 -135 -20 -37 -9 -108 -16 -275 -25 -55 -3 -122 -10 -150 -16 -172
    -34 -1483 -34 -1660 0 -27 6 -124 15 -215 21 -91 6 -176 15 -190 20 -14 4 -83
    14 -155 20 -71 7 -134 16 -140 20 -5 4 -53 13 -105 20 -52 7 -99 15 -105 20
    -5 4 -50 13 -100 20 -49 7 -94 16 -100 20 -5 4 -43 13 -82 20 -40 7 -73 16
    -73 20 0 3 -29 12 -65 19 -36 7 -67 17 -70 21 -3 4 -36 16 -75 25 -39 9 -73
    21 -76 26 -3 5 -12 9 -19 9 -8 0 -38 11 -67 24 -29 13 -64 27 -77 31 -36 11
    -329 162 -378 195 -24 17 -47 30 -52 30 -4 0 -25 13 -47 30 -21 16 -43 30 -47
    30 -5 0 -36 20 -68 45 -33 25 -62 45 -65 45 -2 0 -10 4 -17 10 -30 24 -114 87
    -138 102 -15 9 -62 47 -105 83 -44 37 -94 79 -112 93 -179 143 -1032 1002
    -1032 1039 0 3 -32 42 -70 87 -39 44 -76 88 -83 96 -48 56 -50 67 -23 123 27
    54 57 108 66 117 3 3 11 16 18 30 7 14 24 43 37 65 13 22 34 58 46 80 12 22
    29 51 39 65 18 26 52 84 80 135 8 17 30 51 48 77 17 26 32 49 32 53 0 4 14 26
    30 50 17 24 30 48 30 54 0 6 4 11 8 11 5 0 16 15 25 33 9 17 23 41 29 51 7 11
    41 63 76 117 34 53 62 101 62 108 0 6 5 11 10 11 6 0 13 8 17 18 8 22 65 106
    76 110 4 2 7 9 7 15 1 7 14 28 30 47 17 19 30 38 30 43 0 4 4 13 10 20 37 46
    110 148 110 154 1 10 62 38 120 54 25 7 54 18 65 25 11 7 36 15 55 19 19 4 40
    11 45 15 6 5 35 15 65 24 30 8 87 25 125 37 39 12 106 30 150 41 44 11 87 23
    95 27 9 5 49 14 90 21 41 7 80 16 85 20 6 5 48 14 95 20 47 7 90 16 95 20 6 4
    53 13 105 20 52 6 104 16 115 20 11 5 74 16 140 24 66 9 153 20 193 26 117 17
    252 30 477 46 116 9 226 20 245 25 93 24 1390 36 1945 18z m4373 2 c9 -5 71
    -14 137 -21 66 -7 122 -15 125 -19 3 -4 34 -14 70 -21 36 -7 70 -17 77 -22 7
    -6 17 -7 23 -3 5 3 10 2 10 -3 0 -5 9 -12 20 -15 24 -6 25 -20 4 -41 -8 -9
    -13 -16 -9 -16 11 0 -65 -94 -138 -170 -102 -106 -290 -250 -326 -250 -6 0
    -11 -5 -11 -12 0 -6 -3 -8 -7 -5 -9 9 -43 -22 -43 -40 0 -7 -4 -13 -10 -13
    -21 0 -9 -51 30 -126 22 -43 40 -86 40 -96 0 -10 4 -18 9 -18 4 0 14 -21 21
    -47 7 -27 16 -52 21 -58 4 -5 15 -50 25 -100 9 -49 21 -92 24 -95 19 -13 15
    -154 -4 -158 -10 -2 -21 0 -25 5 -3 5 -42 15 -86 22 -44 7 -91 19 -105 25 -60
    30 -118 55 -152 67 -21 7 -38 17 -38 21 0 4 -15 15 -32 23 -61 29 -88 46 -88
    56 0 5 -7 9 -16 9 -21 0 -248 229 -274 278 -43 78 -55 97 -66 107 -21 18 -25
    51 -9 65 8 7 27 34 41 61 27 48 27 48 73 42 25 -3 48 -9 51 -13 3 -5 40 -13
    83 -20 42 -7 77 -16 77 -20 0 -4 30 -13 68 -20 37 -7 72 -16 77 -20 47 -35
    135 -14 135 33 0 21 -77 97 -98 97 -7 0 -15 6 -18 14 -3 7 -23 19 -45 26 -21
    7 -39 16 -39 20 0 4 -27 13 -60 21 -33 7 -60 16 -60 20 0 6 -94 25 -159 32
    -10 2 -15 23 -17 76 -3 41 -8 77 -13 80 -35 24 2 101 48 101 6 0 11 5 11 10 0
    6 3 9 8 8 4 -1 37 12 73 29 36 18 79 35 95 39 16 4 31 11 35 15 3 5 52 14 110
    20 57 7 108 16 114 21 12 11 191 10 213 -1z m-1055 -100 c16 -6 32 -11 37 -11
    22 0 99 -90 105 -124 4 -20 11 -39 16 -42 13 -8 11 -131 -2 -139 -6 -4 -8 -13
    -5 -21 3 -8 1 -14 -4 -14 -6 0 -10 -7 -10 -15 0 -47 -110 -148 -141 -130 -4 3
    -11 1 -14 -5 -9 -15 -74 -2 -107 21 -14 11 -29 19 -32 19 -7 0 -46 38 -46 45
    0 3 -11 23 -25 44 -25 38 -28 105 -5 136 4 6 13 40 21 78 7 37 16 67 20 67 3
    0 9 19 13 42 10 62 89 84 179 49z M4305 6438 c-49 -6 -92 -13 -95 -18 -3 -4
    -30 -10 -60 -14 -30 -4 -68 -13 -85 -20 -16 -8 -50 -19 -75 -26 -52 -14 -123
    -44 -160 -66 -14 -8 -37 -21 -52 -27 -16 -6 -28 -15 -28 -19 0 -4 -6 -8 -13
    -8 -7 0 -28 -13 -47 -30 -19 -16 -39 -29 -43 -30 -4 0 -21 -13 -37 -30 -16
    -16 -33 -30 -38 -30 -9 0 -108 -103 -179 -186 -23 -27 -82 -94 -130 -150 -48
    -55 -102 -118 -120 -140 -52 -64 -212 -256 -308 -369 -49 -59 -94 -114 -100
    -124 -5 -9 -46 -60 -91 -112 -45 -52 -83 -99 -85 -106 -2 -6 -47 -60 -100
    -121 -144 -163 -145 -143 19 -310 40 -41 76 -80 80 -87 4 -7 72 -82 151 -167
    78 -84 180 -193 225 -242 87 -96 281 -292 311 -316 64 -50 171 -106 225 -116
    16 -4 30 -10 30 -14 0 -4 28 -13 63 -19 34 -7 91 -19 127 -29 96 -24 659 -25
    740 0 30 9 80 21 110 27 67 14 210 82 267 128 23 18 47 33 53 33 7 0 168 155
    359 344 190 190 359 355 376 368 59 46 188 111 245 123 19 4 40 11 45 15 55
    43 639 78 690 41 5 -4 26 -8 45 -9 49 -4 141 -21 165 -32 11 -5 38 -14 60 -21
    47 -14 106 -45 170 -88 25 -17 49 -31 54 -31 10 0 177 -157 285 -268 81 -83
    386 -374 432 -411 37 -31 114 -81 124 -81 5 0 10 -4 10 -9 0 -18 153 -86 240
    -107 30 -7 75 -18 100 -26 158 -44 800 -5 937 58 17 7 34 14 38 14 14 0 102
    44 131 66 17 13 35 24 40 24 12 0 294 284 294 295 0 5 35 44 78 89 222 230
    432 455 432 464 0 6 4 12 8 14 17 7 122 129 122 141 0 8 -22 40 -50 73 -62 74
    -73 87 -85 106 -5 8 -29 40 -53 69 -24 30 -52 65 -62 79 -54 71 -133 168 -155
    192 -14 15 -25 30 -25 33 0 4 -27 39 -61 79 -33 39 -72 85 -85 101 -13 17 -73
    86 -132 155 -59 68 -113 131 -120 140 -72 88 -277 312 -343 376 -124 119 -156
    141 -309 214 -119 58 -120 58 -170 71 -25 6 -49 15 -55 19 -5 4 -46 14 -90 20
    -44 7 -85 16 -90 21 -45 35 -614 34 -660 -1 -5 -4 -37 -13 -69 -20 -33 -7 -67
    -16 -75 -20 -9 -4 -36 -16 -61 -26 -25 -10 -64 -30 -88 -46 -24 -15 -47 -28
    -52 -28 -5 0 -34 -20 -64 -45 -31 -25 -59 -45 -63 -45 -5 0 -111 -99 -237
    -221 -125 -121 -242 -226 -260 -235 -17 -8 -51 -26 -76 -40 -126 -72 -458 -98
    -667 -53 -177 39 -222 69 -491 330 -237 232 -321 299 -453 364 -41 20 -81 40
    -89 44 -8 4 -40 13 -70 20 -30 7 -64 17 -75 22 -61 27 -407 37 -600 17z m396
    -947 c114 -28 289 -148 289 -199 0 -7 6 -15 14 -18 7 -3 19 -23 26 -45 7 -21
    16 -39 20 -39 12 0 30 -110 30 -186 0 -168 -58 -290 -189 -397 -25 -20 -51
    -41 -57 -46 -5 -4 -28 -14 -50 -20 -21 -7 -54 -20 -73 -28 -39 -17 -249 -15
    -273 3 -7 6 -32 16 -55 24 -24 7 -43 16 -43 19 0 3 -13 12 -29 19 -184 81
    -287 442 -184 641 43 83 156 211 187 211 6 0 18 6 24 13 55 54 238 79 363 48z
    m3515 -2 c38 -11 86 -32 106 -45 21 -13 41 -24 45 -24 27 0 168 -179 179 -228
    4 -15 12 -33 18 -41 15 -19 15 -273 0 -292 -6 -8 -14 -27 -18 -43 -16 -66
    -154 -236 -191 -236 -7 0 -18 -6 -24 -14 -41 -49 -372 -91 -399 -50 -4 6 -20
    14 -37 18 -16 4 -47 18 -67 32 -21 13 -40 24 -42 24 -8 0 -90 86 -112 116
    -275 388 93 920 542 783z M4505 5260 c-3 -5 -15 -10 -26 -10 -31 0 -137 -106
    -149 -149 -21 -76 -6 -241 22 -241 5 0 13 -11 18 -24 18 -50 125 -99 211 -99
    75 0 208 62 209 96 0 5 10 23 23 40 25 36 34 220 11 235 -6 4 -14 17 -18 29
    -9 29 -103 113 -126 113 -11 0 -22 5 -25 10 -3 6 -37 10 -75 10 -38 0 -72 -4
    -75 -10z M8000 5261 c0 -5 -13 -11 -29 -14 -16 -4 -49 -25 -72 -49 -176 -178
    -60 -464 186 -462 286 3 369 387 111 509 -54 25 -196 37 -196 16z M6165 4169
    c-55 -5 -109 -13 -120 -18 -11 -6 -40 -13 -64 -17 -74 -11 -161 -107 -161
    -179 0 -30 49 -175 59 -175 3 0 12 -13 19 -29 20 -45 185 -197 247 -228 112
    -54 63 -203 -90 -275 -71 -33 -218 -33 -287 0 -26 12 -52 22 -56 22 -5 0 -46
    34 -91 75 -103 93 -180 96 -221 7 -49 -109 165 -316 366 -353 32 -6 66 -15 74
    -19 20 -10 122 -10 135 0 6 4 33 10 62 13 57 7 148 45 203 86 94 70 97 71 116
    50 9 -10 21 -19 26 -19 5 0 18 -9 30 -20 35 -32 159 -88 223 -101 78 -15 185
    -20 185 -8 0 5 13 9 29 9 38 0 131 21 131 30 0 4 18 13 40 20 22 7 40 16 40
    19 0 3 14 12 32 20 17 8 66 49 110 93 100 100 109 150 36 212 -63 54 -92 50
    -171 -24 -36 -33 -69 -60 -75 -60 -6 0 -15 -6 -19 -13 -4 -7 -24 -19 -43 -27
    -19 -8 -38 -19 -42 -24 -17 -25 -219 -13 -280 16 -167 79 -216 216 -98 271 33
    16 60 33 60 38 0 5 6 9 13 9 22 0 140 120 184 186 112 170 75 354 -77 379 -25
    4 -50 11 -56 16 -11 9 -251 30 -324 28 -25 -1 -90 -6 -145 -10z"/>
  </g>
</svg>
