<?xml version="1.0" encoding="UTF-8"?>
<svg xmlns="http://www.w3.org/2000/svg" viewBox="0 0 1254 1254" role="img" aria-labelledby="title desc">
<title id="title">Kura logo</title>
<desc id="desc">Vector-traced tanuki mascot holding a book.</desc>
<g transform="translate(0,1254) scale(0.1,-0.1)" fill="#F8ECCB" stroke="none">
<path d="M6040 10258 c-41 -28 -112 -88 -158 -132 -237 -227 -341 -434 -330
-656 4 -77 9 -98 41 -163 44 -89 108 -151 201 -197 70 -35 155 -60 203 -60 30
0 32 -2 35 -42 2 -30 8 -43 18 -43 13 0 15 24 18 146 l3 146 -108 63 c-60 34
-116 69 -125 78 -37 32 -10 102 38 102 11 0 54 -20 97 -45 43 -25 82 -43 87
-40 6 3 10 32 10 64 l0 58 -112 74 c-121 79 -134 98 -104 145 25 37 62 31 136
-21 34 -24 67 -42 71 -39 5 3 9 60 9 128 0 135 8 156 63 156 46 0 57 -31 57
-157 0 -62 4 -114 10 -118 5 -3 36 12 69 35 91 61 141 52 141 -27 0 -26 -12
-37 -110 -101 l-110 -72 0 -59 c0 -33 4 -62 9 -65 4 -3 41 15 82 39 85 52 121
56 145 20 31 -47 14 -68 -116 -145 l-120 -71 0 -143 c0 -78 3 -146 7 -149 12
-13 33 16 33 47 0 31 1 32 68 43 189 30 339 144 393 298 24 68 26 205 4 290
-47 181 -180 368 -388 543 -98 82 -156 122 -178 122 -9 0 -49 -23 -89 -52z
M3607 9806 c-33 -30 -47 -83 -47 -172 0 -112 48 -341 75 -364 10 -9 23 3 55
50 34 50 143 188 269 343 24 29 24 30 5 45 -30 23 -174 88 -234 106 -72 22
-93 20 -123 -8z M8680 9814 c-69 -18 -249 -105 -273 -132 -17 -19 -16 -21 26
-73 53 -65 197 -272 250 -358 21 -34 42 -59 46 -56 14 8 70 169 91 260 42 180
38 298 -10 347 -32 31 -51 33 -130 12z M5415 8653 c-832 -40 -1386 -125 -1875
-286 -265 -88 -231 -64 -362 -255 -211 -308 -608 -961 -608 -1001 0 -13 125
-164 266 -321 161 -180 559 -570 700 -687 440 -364 809 -546 1321 -649 871
-175 2091 -160 2857 35 572 147 1013 440 1641 1091 246 256 468 516 462 541
-2 8 -60 112 -128 229 l-124 213 -85 55 c-151 97 -234 181 -340 344 l-45 69
-70 3 c-112 5 -201 55 -256 143 -23 37 -73 58 -374 159 -544 182 -1128 278
-1910 314 -195 9 -910 11 -1070 3z m-280 -272 c180 -48 267 -106 510 -342 150
-146 186 -175 248 -204 95 -45 188 -59 357 -52 231 9 283 35 513 253 188 180
234 218 338 273 253 136 689 130 996 -14 164 -77 223 -127 427 -360 243 -278
474 -560 689 -841 11 -15 15 -29 10 -38 -14 -24 -578 -629 -647 -694 -146
-137 -358 -190 -714 -179 -204 6 -304 26 -411 82 -108 58 -189 125 -421 352
-234 230 -280 269 -377 321 -227 120 -671 118 -922 -5 -69 -34 -101 -62 -346
-303 -148 -146 -293 -283 -321 -303 -83 -59 -190 -104 -304 -128 -94 -19 -127
-20 -315 -16 -220 6 -311 19 -437 67 -106 40 -170 93 -381 319 -301 323 -447
483 -447 490 0 4 46 63 103 131 57 69 188 229 292 355 267 325 408 489 490
570 153 153 334 240 582 280 130 21 383 14 488 -14z m1185 -1701 c195 -21 250
-55 250 -155 0 -63 -10 -90 -63 -167 -42 -60 -113 -121 -184 -157 -41 -20 -43
-24 -43 -66 0 -58 39 -103 126 -146 58 -29 71 -31 131 -27 82 6 133 30 208 98
62 56 95 63 139 29 20 -16 26 -29 26 -60 0 -33 -7 -46 -53 -91 -110 -111 -272
-165 -413 -139 -73 13 -148 47 -206 93 l-38 30 -37 -30 c-100 -78 -231 -114
-349 -94 -113 19 -228 84 -295 168 -36 46 -38 86 -4 119 40 41 75 33 145 -30
80 -70 152 -99 235 -92 73 5 116 25 173 80 38 37 42 46 42 89 0 47 0 48 -52
74 -67 34 -177 144 -207 207 -62 129 -22 221 106 247 134 28 232 33 363 20z
M4756 7689 c-145 -50 -248 -172 -264 -313 -16 -135 26 -254 120 -342 136 -127
350 -139 489 -26 117 93 166 202 156 339 -19 249 -271 421 -501 342z m228
-212 c49 -38 76 -94 76 -158 0 -115 -76 -192 -189 -192 -114 0 -191 75 -191
186 0 67 12 102 48 141 41 44 78 57 153 53 54 -2 73 -7 103 -30z M7422 7695
c-71 -20 -100 -36 -158 -88 -203 -183 -153 -521 95 -639 265 -126 570 84 548
378 -7 94 -40 167 -108 239 -99 105 -245 147 -377 110z m193 -202 c69 -35 105
-94 105 -173 0 -65 -18 -108 -63 -147 -68 -60 -159 -67 -241 -19 -105 61 -117
227 -23 314 53 49 151 60 222 25z M10970 6378 c-146 -21 -315 -97 -455 -205
-163 -126 -301 -290 -436 -515 -70 -117 -117 -213 -317 -643 -95 -205 -168
-337 -269 -487 l-85 -127 36 -78 c19 -43 39 -89 44 -103 6 -16 40 -44 95 -78
399 -244 806 -687 1038 -1130 l54 -103 -50 -46 c-265 -243 -739 -507 -1005
-559 -68 -13 -79 -50 -12 -38 161 27 397 106 567 192 238 119 457 281 670 496
252 254 456 535 647 891 316 589 493 1283 438 1721 -54 433 -349 760 -735 813
-87 13 -133 12 -225 -1z m320 -178 c194 -65 346 -211 426 -410 53 -129 66
-204 71 -395 l5 -180 -58 65 c-209 237 -455 432 -714 564 -142 73 -214 102
-350 139 -64 18 -118 37 -120 42 -8 16 147 112 235 146 120 47 194 59 325 55
84 -3 133 -10 180 -26z m-1055 -827 c254 -72 522 -212 780 -406 172 -130 495
-482 570 -621 18 -33 18 -33 -20 -132 -71 -184 -236 -511 -317 -626 l-19 -28
-82 123 c-46 68 -118 168 -162 222 -102 129 -371 397 -503 503 -195 156 -422
296 -597 367 -49 21 -91 38 -93 39 -1 2 63 137 143 300 l146 297 32 -6 c18 -4
73 -18 122 -32z M4577 4572 c-23 -25 -22 -85 1 -105 17 -16 122 -17 1308 -17
917 0 1293 3 1301 11 8 8 2 27 -21 67 l-32 57 -1270 3 c-1221 2 -1271 1 -1287
-16z M7285 4580 c-3 -5 15 -36 41 -70 l46 -61 101 3 c68 2 102 7 104 15 3 7
-19 37 -48 68 l-52 55 -93 0 c-51 0 -95 -4 -99 -10z M7235 4455 c-25 -24 -25
-27 -25 -195 l0 -170 -64 0 c-58 0 -67 -3 -85 -26 -27 -34 -26 -55 2 -82 19
-18 35 -22 85 -22 l62 0 0 -375 0 -375 -58 0 c-73 0 -102 -18 -102 -64 0 -49
25 -66 98 -66 l62 0 0 -375 0 -375 -60 0 c-51 0 -65 -4 -85 -25 -31 -30 -32
-55 -2 -83 19 -18 35 -22 85 -22 l62 0 0 -275 0 -276 25 -24 c30 -31 55 -32
83 -2 22 23 22 30 22 300 l0 277 98 0 c72 0 103 4 120 16 29 20 29 64 -1 92
-21 19 -34 22 -120 22 l-97 0 0 373 c0 254 3 376 11 384 8 8 8 22 0 49 -7 25
-11 183 -11 432 l0 392 98 0 c90 0 100 2 120 23 26 27 28 54 6 85 -14 20 -23
22 -120 22 l-104 0 0 170 c0 168 0 171 -25 195 -31 31 -49 31 -80 0z M4961
4097 c-8 -11 -10 -308 -9 -1123 l3 -1109 525 0 525 0 0 1120 0 1120 -516 3
c-427 2 -518 0 -528 -11z m979 -1112 l0 -1045 -455 0 -455 0 0 1045 0 1045
455 0 455 0 0 -1045z M5055 3998 c-3 -7 -4 -467 -3 -1023 l3 -1010 425 0 425
0 0 1020 0 1020 -423 3 c-333 2 -424 0 -427 -10z m304 -267 c12 -8 10 -16 -12
-50 -34 -52 -62 -68 -76 -44 -7 14 -1 27 27 59 41 47 41 47 61 35z m101 -16
c8 -21 16 -25 50 -25 43 0 57 -23 20 -33 -14 -3 -20 -14 -20 -32 0 -18 6 -29
20 -32 22 -6 28 -33 6 -33 -7 0 -20 -7 -27 -16 -11 -14 -10 -19 9 -34 27 -22
28 -32 2 -48 -17 -10 -18 -16 -10 -32 6 -11 17 -20 25 -20 8 0 15 -8 15 -19 0
-15 -13 -20 -75 -31 -42 -7 -77 -11 -80 -9 -2 3 -1 39 2 82 4 55 10 77 19 77
10 0 14 -15 14 -54 0 -30 4 -57 9 -60 20 -13 32 24 29 91 l-3 68 -32 3 c-20 2
-33 9 -33 17 0 8 13 15 33 17 25 2 33 8 35 27 5 33 -15 51 -32 29 -15 -21 -46
-24 -46 -5 1 22 39 97 50 97 6 0 15 -11 20 -25z m238 -162 c-3 -146 -4 -158
-22 -161 -10 -2 -23 3 -28 12 -15 27 -28 8 -28 -40 0 -37 -3 -44 -20 -44 -19
0 -20 7 -20 195 l0 195 60 0 61 0 -3 -157z m-318 53 c0 -6 -7 -20 -15 -30 -11
-15 -15 -50 -15 -138 0 -110 -1 -118 -19 -118 -17 0 -19 8 -19 74 0 80 -5 98
-26 90 -26 -10 -28 28 -3 55 13 14 34 40 46 58 21 31 51 36 51 9z m290 -651
l0 -195 -26 -10 c-40 -16 -60 -12 -72 14 -10 23 -9 25 21 28 30 3 32 5 32 43
l0 40 -55 0 -55 0 -3 -62 c-3 -54 -6 -63 -22 -63 -16 0 -19 9 -22 63 l-3 62
-50 0 -50 0 -18 -55 c-22 -69 -35 -84 -60 -65 -18 13 -17 15 4 57 19 37 23 63
27 185 l5 143 166 3 c91 1 169 4 174 5 4 1 7 -86 7 -193z m-292 -396 c3 -42 9
-49 37 -49 22 0 24 -4 27 -62 3 -55 5 -63 23 -63 18 0 20 8 25 95 l5 95 98 3
c91 3 97 2 97 -17 0 -18 -8 -20 -77 -23 -96 -4 -103 -22 -10 -26 49 -2 67 -7
67 -17 0 -10 -18 -15 -67 -17 -53 -2 -68 -6 -68 -18 0 -12 15 -16 68 -18 52
-2 67 -6 67 -18 0 -13 -13 -15 -67 -13 -53 2 -68 -1 -68 -12 0 -11 20 -15 88
-17 77 -2 87 -5 87 -21 0 -11 -8 -22 -17 -25 -12 -5 -14 -9 -5 -18 9 -9 6 -18
-14 -39 l-25 -26 32 -27 c30 -25 31 -29 16 -44 -15 -15 -20 -13 -57 17 -38 30
-42 31 -46 14 -7 -27 -132 -59 -141 -36 -3 8 4 21 16 30 19 13 22 23 19 71 -3
49 -6 57 -23 57 -15 0 -21 -8 -25 -35 -4 -31 -8 -35 -35 -35 -17 0 -30 -6 -31
-12 -1 -7 -2 -31 -3 -53 -1 -28 -5 -40 -16 -40 -12 0 -15 26 -17 153 -3 173
-21 211 -26 55 -2 -90 -4 -98 -22 -98 -19 0 -20 7 -20 120 0 119 0 120 23 120
31 0 47 18 47 52 0 42 35 39 38 -3z M5626 3673 c-11 -11 -7 -231 4 -238 6 -4
17 -1 25 5 11 9 14 37 13 116 -1 88 -4 106 -18 114 -10 5 -20 6 -24 3z M5364
3086 c-14 -37 0 -51 51 -51 49 0 50 1 50 30 0 29 -2 30 -48 33 -35 2 -49 -1
-53 -12z M5513 3084 c-12 -31 11 -49 63 -49 48 0 49 1 49 30 0 29 -1 30 -53
33 -42 2 -54 0 -59 -14z M5364 2976 c-14 -37 0 -51 51 -51 49 0 50 1 50 30 0
29 -2 30 -48 33 -35 2 -49 -1 -53 -12z M5514 2976 c-15 -38 -1 -51 56 -51 54
0 55 0 55 30 0 29 -1 30 -53 33 -39 2 -54 -1 -58 -12z M5379 2466 c-9 -9 6
-161 16 -158 14 3 13 154 -1 159 -5 2 -12 1 -15 -1z M5537 2334 c-4 -4 -7 -29
-7 -56 0 -53 14 -67 49 -49 20 11 20 12 2 52 -21 46 -34 62 -44 53z M5607
2334 c-3 -4 -2 -15 4 -25 9 -18 11 -18 34 -3 14 9 22 20 19 25 -6 10 -48 12
-57 3z M4165 3630 c-83 -13 -219 -59 -280 -95 -38 -23 -50 -36 -50 -54 0 -45
25 -48 137 -13 130 41 193 52 282 52 192 -1 345 -77 403 -200 29 -63 36 -113
22 -160 -18 -60 -48 -82 -124 -91 -80 -10 -105 -23 -105 -54 0 -34 36 -55 92
-55 62 0 94 -16 113 -55 36 -77 5 -199 -73 -286 -91 -101 -221 -166 -407 -203
-60 -12 -110 -26 -110 -32 0 -28 212 -32 319 -4 102 26 176 69 257 149 136
136 179 309 109 443 l-19 37 32 62 c28 54 32 72 31 138 0 114 -29 178 -118
266 -75 75 -144 114 -242 140 -75 19 -194 26 -269 15z M7855 3616 c-146 -35
-279 -136 -337 -254 -28 -57 -32 -76 -33 -147 0 -72 4 -88 32 -144 l32 -62
-19 -32 c-49 -85 -46 -203 7 -314 38 -79 149 -191 232 -232 119 -61 279 -85
405 -63 57 10 43 25 -36 39 -292 49 -509 210 -534 397 -14 97 29 153 127 162
89 9 122 40 81 77 -12 11 -36 17 -66 17 -142 0 -197 114 -126 258 101 200 389
259 713 145 l79 -28 19 24 c20 24 20 24 -2 47 -28 29 -174 91 -259 110 -79 17
-246 17 -315 0z"/>
</g>
<g transform="translate(0,1254) scale(0.1,-0.1)" fill="#223A70" stroke="none">
<path d="M8845 10565 c-168 -27 -345 -90 -556 -196 -132 -67 -379 -221 -379
-237 0 -5 30 -34 68 -66 37 -32 106 -96 154 -142 l86 -85 58 37 c154 99 415
200 547 213 136 13 194 -18 225 -119 26 -85 23 -351 -7 -489 -34 -160 -106
-372 -171 -501 l-17 -35 51 -105 51 -105 70 -7 c39 -4 79 -8 90 -10 17 -2 30
18 80 117 261 522 340 1165 183 1492 -45 94 -144 193 -224 222 -75 29 -193 35
-309 16z M3311 10550 c-105 -38 -189 -119 -252 -242 -111 -218 -119 -619 -21
-1028 51 -211 209 -610 242 -610 5 0 25 30 44 68 19 37 63 115 98 173 l64 106
-33 88 c-39 100 -86 279 -104 393 -6 42 -12 136 -12 207 -1 195 30 309 101
363 32 25 43 27 116 26 116 -2 231 -39 431 -139 l169 -84 71 67 c38 38 110
101 158 141 48 40 86 78 84 84 -6 20 -194 133 -347 210 -333 168 -645 236
-809 177z M5985 10524 c-583 -60 -1007 -233 -1470 -598 -209 -164 -513 -492
-710 -766 -191 -264 -409 -630 -385 -645 6 -3 70 12 142 34 474 144 985 224
1663 261 237 13 1068 13 1326 0 617 -31 1041 -89 1510 -206 188 -47 428 -121
574 -179 98 -38 111 -36 117 19 3 25 -5 36 -57 79 -115 94 -412 278 -577 358
-85 41 -58 45 75 13 145 -36 344 -127 504 -230 123 -79 128 -68 49 92 -197
403 -453 749 -767 1040 -420 389 -927 632 -1478 709 -112 15 -436 27 -516 19z
m200 -261 c64 -42 200 -160 259 -224 114 -122 198 -267 231 -394 22 -85 20
-222 -4 -290 -54 -152 -200 -256 -399 -283 l-63 -9 3 95 3 95 100 59 c148 87
169 118 119 177 -35 42 -65 40 -144 -9 -36 -22 -68 -40 -72 -40 -5 0 -8 21 -8
48 l1 47 107 70 c100 65 107 72 110 106 2 24 -4 43 -18 62 -31 39 -69 35 -141
-13 l-59 -41 0 110 c0 103 -1 111 -26 140 -33 39 -68 40 -106 4 -27 -26 -28
-29 -28 -140 0 -62 -3 -113 -6 -113 -3 0 -31 18 -61 40 -69 49 -102 51 -137 9
-50 -60 -33 -87 117 -183 l87 -56 0 -51 0 -51 -32 20 c-130 81 -151 85 -192
47 -25 -23 -33 -56 -20 -89 4 -9 60 -48 125 -88 l119 -71 0 -100 c0 -79 -3
-98 -12 -89 -7 7 -26 12 -42 12 -47 0 -133 26 -201 59 -92 45 -139 92 -182
177 -32 66 -37 87 -41 164 -11 219 95 432 321 647 84 79 211 173 236 173 9 0
34 -12 56 -27z M9622 8645 c-90 -16 -203 -59 -275 -105 -45 -28 -46 -30 -36
-64 5 -19 11 -56 13 -83 2 -27 10 -51 18 -54 7 -4 47 -14 88 -24 161 -37 323
-145 257 -171 -8 -3 -94 16 -192 41 -98 25 -181 44 -186 43 -4 -2 -23 -27 -43
-57 l-36 -54 44 -71 c129 -207 353 -367 586 -420 96 -22 103 -16 90 74 -14 95
-55 231 -102 331 -47 101 -46 129 5 155 114 59 278 203 349 307 48 71 44 78
-54 108 -176 52 -381 69 -526 44z M8937 8578 c-9 -8 -29 -64 -47 -136 l-32
-122 26 -44 c30 -51 70 -83 121 -97 28 -8 44 -6 79 9 150 67 154 301 7 379
-49 26 -127 31 -154 11z M4040 5409 l-62 -40 6 -40 c3 -22 49 -169 100 -327
131 -400 199 -616 344 -1099 21 -71 27 -8 32 345 l5 374 28 24 28 24 309 0
c204 0 311 4 315 10 4 6 -17 43 -46 83 -29 40 -119 167 -200 282 l-148 211
-103 23 c-137 31 -308 83 -430 131 -55 22 -103 40 -108 40 -4 0 -35 -18 -70
-41z M8115 5393 c-109 -42 -281 -91 -430 -123 -60 -13 -116 -28 -123 -33 -7
-6 -54 -71 -106 -146 -51 -75 -136 -197 -189 -271 -53 -74 -93 -138 -89 -142
4 -4 85 -8 181 -10 l174 -3 64 -70 c35 -38 68 -80 74 -93 5 -13 9 -186 9 -392
0 -203 4 -371 8 -374 8 -5 86 15 137 34 15 5 26 30 44 96 50 184 252 832 428
1373 l37 114 -45 38 c-24 21 -53 38 -64 38 -11 -1 -60 -17 -110 -36z M3775
5202 c-100 -85 -262 -251 -350 -357 -410 -498 -662 -1189 -616 -1692 19 -214
39 -243 58 -87 27 213 91 397 196 557 189 290 427 437 705 437 72 0 100 4 112
15 13 12 23 13 42 6 39 -15 158 -138 212 -219 l48 -73 77 3 c74 3 76 3 73 28
-4 42 -249 840 -376 1225 -46 141 -77 221 -87 223 -7 1 -50 -28 -94 -66z
M8415 5258 c-2 -7 -22 -67 -44 -133 -188 -563 -414 -1314 -400 -1331 4 -6 38
-10 75 -10 l67 1 41 67 c51 83 126 170 179 209 46 34 50 34 71 13 12 -12 42
-16 128 -18 91 -2 129 -8 193 -29 365 -121 633 -516 681 -1005 3 -40 10 -75
14 -77 49 -30 74 408 36 630 -75 441 -271 867 -573 1245 -121 152 -424 450
-457 450 -4 0 -8 -6 -11 -12z M4915 5220 c-4 -6 12 -38 36 -73 100 -143 197
-278 271 -374 l79 -103 134 0 c74 0 136 4 139 8 3 5 -38 62 -91 128 -52 65
-142 180 -198 255 l-104 136 -93 12 c-51 7 -109 14 -129 17 -23 4 -39 2 -44
-6z M7270 5208 c-41 -5 -84 -11 -95 -13 -13 -3 -82 -84 -177 -207 -86 -112
-172 -224 -193 -250 -20 -26 -34 -52 -30 -57 4 -7 55 -11 133 -11 l127 0 100
137 c172 236 275 387 272 398 -5 13 -47 14 -137 3z M5336 5172 c-4 -7 70 -107
171 -233 98 -122 186 -232 196 -245 18 -23 24 -24 142 -24 l123 0 66 74 66 74
-145 169 -146 170 -142 7 c-78 3 -183 9 -233 12 -63 5 -93 3 -98 -4z M6945
5173 c-16 -2 -117 -7 -224 -11 -177 -8 -195 -10 -210 -29 -9 -11 -83 -98 -166
-193 -217 -249 -217 -249 -210 -260 4 -6 95 -10 248 -10 l242 0 145 182 c80
100 167 210 193 245 45 59 52 85 24 81 -7 0 -25 -3 -42 -5z M8475 3973 c-91
-10 -112 -26 -194 -146 -36 -53 -31 -77 16 -77 110 0 326 -93 435 -187 290
-251 389 -703 227 -1026 -20 -40 -59 -89 -108 -138 -87 -86 -182 -138 -336
-184 -153 -45 -151 -44 -109 -95 57 -67 171 -101 277 -81 138 25 260 94 383
216 192 190 275 420 261 725 -24 514 -371 960 -772 992 -27 2 -63 3 -80 1z
M3644 3960 c-205 -41 -433 -236 -562 -482 -51 -97 -107 -268 -122 -376 -8 -50
-11 -143 -8 -235 4 -144 7 -158 43 -266 49 -146 121 -257 234 -363 175 -164
421 -240 556 -170 52 26 112 89 99 102 -5 5 -49 21 -99 35 -264 77 -401 177
-484 355 -52 111 -65 180 -64 325 1 95 7 151 22 207 98 376 344 604 713 663
21 3 40 10 43 15 8 13 -19 64 -65 126 -32 42 -47 53 -84 63 -50 12 -160 13
-222 1z M7680 2223 c0 -5 0 -228 -1 -498 -1 -424 1 -491 14 -499 30 -19 635
90 669 121 22 20 23 80 3 333 l-15 185 -37 30 c-66 52 -120 116 -151 180 l-31
62 -88 7 c-109 9 -210 31 -285 62 -60 25 -78 29 -78 17z M4385 2169 c-33 -9
-99 -20 -148 -24 l-87 -8 -32 -60 c-45 -83 -116 -158 -187 -196 -70 -37 -65
-22 -86 -261 -8 -96 -17 -194 -20 -217 -4 -33 -1 -44 13 -52 55 -28 600 -135
617 -121 17 14 19 934 3 947 -9 6 -33 4 -73 -8z M5959 1667 c-48 -31 -79 -98
-79 -167 0 -98 74 -218 146 -236 47 -12 71 3 106 68 49 88 94 111 68 34 -23
-70 7 -67 87 7 57 53 83 104 83 164 0 58 -24 98 -77 130 -68 41 -133 21 -133
-41 0 -59 -54 -156 -86 -156 -21 0 -17 30 11 75 31 52 32 89 0 120 -31 32 -80
33 -126 2z M4576 1548 c-21 -30 -21 -136 0 -166 l15 -22 458 0 c446 0 458 1
476 20 24 26 165 117 222 142 24 11 42 25 40 31 -3 9 -153 13 -600 15 l-596 2
-15 -22z M6456 1561 c-7 -12 5 -20 94 -64 41 -21 104 -60 140 -87 l65 -49 391
-1 391 0 21 23 c18 19 22 35 22 83 0 95 -11 104 -130 104 -85 0 -101 -3 -112
-18 -33 -47 -88 -50 -129 -6 l-22 24 -363 0 c-200 0 -365 -4 -368 -9z M5684
1392 c-95 -63 -174 -126 -266 -213 -72 -68 -76 -95 -21 -147 41 -38 145 -92
180 -92 12 0 28 3 37 6 13 5 180 193 258 289 16 20 15 24 -14 68 -16 25 -35
68 -42 94 -7 28 -19 49 -27 51 -9 1 -56 -24 -105 -56z m81 -118 c-49 -43 -60
-26 -14 22 23 24 36 31 43 23 8 -8 -1 -21 -29 -45z M6421 1404 c-12 -25 -37
-61 -57 -79 l-37 -34 108 -123 c171 -194 206 -228 236 -228 65 0 229 110 229
154 0 22 -37 63 -129 143 -97 85 -285 213 -312 213 -12 0 -25 -16 -38 -46z"/>
</g>
<g transform="translate(0,1254) scale(0.1,-0.1)" fill="#000000" stroke="none">
<path d="M3348 10830 c-336 -41 -559 -309 -629 -755 -20 -123 -15 -395 9 -557
49 -328 172 -709 327 -1018 l43 -86 -61 -84 c-202 -282 -682 -1041 -713 -1129
-16 -45 -18 -128 -2 -172 17 -51 55 -102 184 -250 331 -377 738 -767 1029
-985 112 -84 199 -144 274 -189 l64 -38 -25 -21 c-14 -12 -74 -59 -134 -106
-724 -567 -1218 -1597 -1133 -2368 30 -278 129 -566 265 -772 65 -99 216 -255
309 -320 116 -79 250 -139 371 -163 l104 -22 0 -30 c0 -16 -9 -113 -20 -215
-25 -235 -25 -281 0 -329 27 -54 66 -74 205 -111 131 -34 513 -111 640 -129
83 -12 345 -26 690 -37 188 -6 201 -7 230 -29 56 -44 137 -75 192 -75 66 0 93
11 145 58 l43 39 371 -2 372 -1 46 -41 c59 -52 119 -70 182 -54 53 14 115 43
159 76 29 22 43 23 355 34 354 13 533 29 740 67 132 24 387 81 483 106 62 17
115 60 139 114 19 43 19 50 4 266 -21 296 -21 288 8 288 103 0 314 66 431 135
47 27 52 28 219 30 674 10 1295 295 1801 826 555 584 951 1366 1099 2172 94
510 38 898 -176 1215 -224 332 -617 523 -992 483 -204 -22 -401 -96 -585 -219
-102 -68 -322 -282 -404 -394 -121 -163 -234 -372 -397 -733 -45 -99 -108
-232 -141 -295 -61 -116 -184 -310 -197 -310 -4 0 -25 28 -47 62 -151 235
-468 572 -685 730 -33 23 -59 45 -59 48 -1 3 32 23 71 45 155 87 432 300 657
505 254 229 715 719 828 877 40 56 55 123 42 181 -10 44 -54 139 -108 230 -17
29 -29 52 -28 52 1 1 25 2 52 4 98 6 135 50 135 160 0 102 -28 258 -66 371
-19 55 -34 103 -34 107 0 4 21 22 48 39 133 91 261 234 328 364 32 64 36 80
32 125 -7 68 -38 99 -139 139 -242 96 -537 124 -752 72 -69 -16 -78 -17 -72
-3 112 293 163 461 199 662 66 362 57 649 -29 899 -107 315 -356 487 -675 466
-333 -22 -710 -172 -1133 -453 l-134 -89 -74 44 c-604 359 -1297 489 -1955
368 -304 -56 -594 -165 -898 -338 l-78 -44 -87 59 c-189 130 -391 241 -576
315 -266 107 -510 154 -687 133z m5806 -290 c42 -16 75 -39 120 -84 109 -108
162 -258 173 -491 16 -340 -78 -747 -258 -1124 -50 -104 -62 -122 -76 -116
-10 5 -48 10 -85 13 l-68 4 -46 97 c-26 53 -46 101 -46 106 0 6 21 56 46 113
57 129 108 287 137 422 30 139 33 404 7 490 -21 67 -68 116 -122 127 -130 27
-446 -74 -660 -211 l-58 -37 -50 51 c-28 28 -94 90 -147 137 -53 47 -97 88
-99 92 -5 13 233 162 368 230 366 185 678 250 864 181z m-5513 0 c138 -28 278
-79 454 -165 152 -75 365 -200 365 -215 0 -4 -37 -39 -82 -76 -46 -37 -115
-98 -153 -136 l-71 -67 -169 84 c-200 100 -315 137 -432 139 -77 1 -83 -1
-119 -30 -77 -62 -109 -174 -108 -374 1 -69 7 -160 13 -202 18 -113 65 -293
103 -393 l34 -87 -76 -127 c-41 -70 -84 -146 -94 -169 -11 -23 -22 -42 -26
-42 -4 0 -25 39 -48 88 -161 348 -239 658 -249 994 -6 188 3 288 38 416 49
183 153 312 290 362 73 26 202 26 330 0z m2860 -45 c223 -31 421 -84 636 -171
666 -267 1234 -824 1599 -1568 49 -99 62 -136 49 -136 -2 0 -42 25 -89 54
-111 72 -280 157 -388 194 -93 33 -227 64 -240 56 -18 -12 -5 -25 55 -55 187
-95 448 -257 570 -354 51 -40 57 -49 51 -73 -4 -15 -10 -30 -13 -34 -4 -4 -47
8 -96 27 -146 58 -386 132 -574 179 -469 117 -893 175 -1510 206 -258 13
-1089 13 -1326 0 -680 -37 -1209 -121 -1675 -264 -63 -20 -118 -36 -123 -36
-27 0 217 404 388 640 197 273 493 593 700 756 463 365 887 538 1470 598 80 8
404 -4 516 -19z m-2770 -691 c63 -19 239 -101 239 -112 0 -4 -35 -47 -76 -97
-72 -85 -200 -251 -236 -305 l-16 -25 -12 30 c-24 59 -60 261 -60 335 0 90 13
143 42 170 26 24 48 25 119 4z m5074 -8 c58 -58 39 -276 -45 -509 -18 -48 -33
-87 -35 -87 -1 0 -19 28 -40 63 -50 82 -187 278 -243 347 l-44 54 24 20 c34
28 195 103 259 120 76 21 97 19 124 -8z m-2300 -1156 c780 -38 1363 -134 1895
-314 299 -101 342 -120 366 -158 57 -89 151 -141 262 -142 39 0 72 -4 72 -8 0
-4 27 -47 60 -97 80 -119 187 -225 305 -302 l95 -63 121 -208 c66 -114 123
-216 125 -226 14 -50 -583 -693 -881 -951 -226 -195 -505 -391 -690 -483 -429
-216 -1012 -325 -1840 -344 -619 -14 -1248 42 -1690 152 -561 140 -980 402
-1555 976 -271 270 -570 607 -570 643 0 40 449 774 643 1052 l72 103 77 29
c195 75 555 175 778 215 362 66 690 100 1250 129 148 8 920 6 1105 -3z m3497
-14 c98 -19 215 -54 223 -66 10 -16 -68 -121 -146 -196 -64 -61 -130 -110
-241 -178 -45 -27 -45 -56 0 -155 65 -138 126 -381 103 -404 -12 -12 -146 22
-235 60 -173 74 -323 202 -422 360 l-45 72 30 41 c16 23 31 46 33 52 3 7 70
-6 191 -37 152 -39 190 -45 202 -35 22 18 18 38 -12 66 -60 56 -168 104 -286
128 l-59 12 -4 48 c-2 26 -8 63 -13 82 -9 33 -8 35 35 60 78 46 180 84 266 99
98 17 265 13 380 -9z m-914 -67 c105 -51 134 -205 59 -313 -26 -37 -97 -69
-134 -60 -49 11 -92 44 -119 90 l-26 44 32 122 c17 68 37 126 43 130 23 15
101 8 145 -13z m2191 -2205 c37 -9 107 -36 157 -60 239 -117 407 -345 470
-636 22 -105 29 -312 15 -453 -67 -654 -399 -1428 -858 -2000 -114 -142 -332
-362 -455 -459 -273 -215 -551 -357 -848 -434 -141 -37 -194 -47 -186 -34 3 5
23 13 43 16 258 45 752 320 1015 566 l53 49 -54 103 c-232 444 -647 895 -1047
1140 -46 28 -84 55 -84 60 0 4 -18 49 -41 99 l-41 90 85 127 c101 150 174 282
269 487 200 430 247 526 317 643 216 361 456 580 744 677 140 47 303 54 446
19z m-7101 -938 c116 -49 241 -89 404 -130 l168 -42 143 -205 c79 -112 166
-236 195 -275 29 -39 52 -74 52 -77 0 -4 -139 -7 -310 -7 l-310 0 -32 -29 -33
-29 -5 -374 c-3 -213 -8 -360 -13 -343 -33 124 -214 705 -343 1097 -51 158
-96 305 -100 326 -6 39 -6 39 52 76 32 20 62 36 66 36 5 0 34 -11 66 -24z
m4106 -30 l39 -34 -37 -113 c-173 -535 -364 -1147 -421 -1354 -16 -55 -29
-101 -30 -103 -1 -1 -26 -9 -56 -16 -30 -8 -62 -18 -71 -21 -17 -7 -18 15 -18
363 0 205 -4 381 -9 394 -5 13 -41 57 -79 98 l-69 75 -176 5 -176 5 103 145
c57 80 143 203 192 274 l89 129 145 33 c177 40 288 72 406 117 49 19 98 35
109 36 11 0 38 -15 59 -33z m-4311 -423 c53 -164 116 -363 141 -443 55 -181
206 -679 212 -702 5 -16 -3 -18 -68 -18 l-74 0 -44 68 c-50 76 -179 208 -217
223 -20 7 -30 6 -43 -6 -12 -11 -40 -15 -112 -15 -279 0 -523 -152 -715 -447
-105 -161 -171 -349 -195 -557 -15 -120 -22 -103 -39 87 -34 364 97 866 331
1274 80 138 201 316 285 418 125 151 399 415 431 415 6 0 54 -134 107 -297z
m4512 257 c71 -55 305 -296 388 -400 302 -378 499 -806 573 -1245 22 -127 24
-395 5 -523 -8 -51 -17 -95 -21 -97 -4 -3 -11 28 -14 68 -48 489 -322 892
-691 1014 -67 22 -99 27 -192 27 -62 1 -113 4 -113 8 0 4 -9 12 -20 18 -17 9
-28 7 -55 -10 -50 -31 -156 -151 -200 -226 l-39 -66 -65 4 c-59 4 -66 6 -63
24 9 57 190 649 337 1104 42 129 84 259 93 288 9 28 19 52 21 52 2 0 28 -18
56 -40z m-3398 -21 l92 -12 73 -96 c39 -53 123 -161 186 -241 63 -80 119 -151
125 -157 7 -10 -19 -13 -126 -13 l-135 0 -100 133 c-116 154 -271 374 -280
395 -4 12 2 14 34 9 21 -3 81 -11 131 -18z m2313 3 c0 -8 -135 -202 -285 -410
l-80 -111 -127 -1 c-71 0 -128 3 -128 8 0 4 13 23 29 42 15 19 99 127 186 240
86 113 167 208 178 212 22 7 147 24 200 27 15 0 27 -3 27 -7z m-1708 -51 l117
-6 141 -163 140 -164 -62 -69 -61 -69 -122 0 c-108 0 -124 2 -136 19 -8 10
-94 118 -191 239 -98 122 -178 224 -178 228 0 4 53 3 118 -1 64 -4 170 -10
234 -14z m1308 12 c-1 -8 -75 -104 -280 -362 l-95 -120 -242 0 c-134 -1 -243
2 -243 7 0 4 61 77 136 162 74 85 161 185 192 221 65 76 72 78 211 80 80 1
263 11 309 17 6 1 12 -1 12 -5z m158 -638 c16 -30 27 -57 24 -60 -3 -3 -586
-5 -1297 -5 -991 0 -1294 3 -1303 12 -16 16 -16 80 0 96 9 9 307 12 1279 12
l1267 0 30 -55z m366 5 c25 -27 46 -54 46 -60 0 -6 -37 -10 -99 -10 l-98 0
-42 55 c-22 31 -41 58 -41 60 0 3 42 5 94 5 l93 0 47 -50z m-214 -80 c18 -18
20 -33 20 -195 l0 -175 110 0 c98 0 110 -2 120 -19 14 -28 12 -52 -7 -73 -14
-15 -32 -18 -120 -18 l-103 0 0 -397 c0 -259 4 -412 11 -438 8 -29 8 -40 0
-43 -8 -3 -11 -116 -11 -388 l0 -384 102 0 c113 0 138 -11 138 -61 0 -41 -24
-49 -139 -49 l-101 0 0 -282 c0 -248 -2 -284 -17 -300 -21 -24 -48 -23 -73 2
-19 19 -20 33 -20 300 l0 280 -67 0 c-95 0 -132 41 -83 90 16 16 33 20 85 20
l65 0 0 385 0 385 -68 0 c-77 0 -92 9 -92 57 0 42 21 53 99 53 l61 0 0 385 0
385 -67 0 c-93 0 -126 33 -87 88 13 19 24 22 85 22 l69 0 0 175 c0 162 2 177
20 195 11 11 27 20 35 20 8 0 24 -9 35 -20z m-1312 -1467 l-3 -1118 -515 0
-515 0 -3 1118 -2 1117 520 0 520 0 -2 -1117z m2664 961 c346 -83 634 -507
655 -964 14 -302 -69 -535 -256 -720 -195 -193 -431 -267 -585 -182 -47 25
-96 76 -85 87 3 2 45 16 94 30 208 60 325 131 426 255 130 160 170 424 103
670 -70 257 -226 451 -449 560 -93 45 -210 80 -269 80 -40 0 -39 16 2 77 73
106 81 112 182 126 37 5 118 -3 182 -19z m-4796 5 c35 -9 51 -21 78 -58 31
-43 66 -104 66 -115 0 -3 -17 -8 -37 -11 -372 -59 -625 -295 -724 -673 -28
-104 -30 -309 -6 -402 69 -260 226 -403 542 -495 49 -14 91 -28 94 -30 2 -3
-9 -19 -25 -36 -97 -102 -248 -103 -450 -4 -183 89 -327 261 -399 476 -36 108
-39 122 -43 266 -5 182 7 279 54 426 60 186 150 332 281 458 109 105 233 176
347 199 62 12 172 11 222 -1z m568 -344 c96 -25 167 -65 237 -135 83 -82 113
-149 113 -261 1 -66 -3 -84 -31 -138 l-32 -62 19 -37 c69 -132 27 -307 -104
-438 -114 -113 -248 -165 -420 -163 -151 2 -167 11 -53 32 300 53 517 231 517
423 0 94 -47 144 -135 144 -59 0 -85 14 -85 45 0 19 7 26 38 34 20 6 54 11 74
11 75 0 138 92 122 178 -32 176 -205 291 -440 292 -89 0 -152 -11 -281 -51
-106 -33 -133 -33 -133 0 0 26 63 63 172 101 146 51 290 59 422 25z m3656 15
c94 -12 183 -38 277 -82 64 -30 81 -51 62 -74 -16 -19 -26 -18 -126 16 -232
77 -448 62 -590 -43 -113 -83 -161 -213 -113 -307 25 -49 64 -70 131 -70 53 0
89 -19 89 -46 0 -25 -43 -44 -98 -44 -45 0 -58 -4 -82 -28 -39 -40 -55 -102
-40 -161 47 -188 253 -335 535 -382 97 -17 73 -27 -66 -28 -176 -2 -301 45
-419 156 -139 130 -183 292 -118 434 l23 52 -33 66 c-31 60 -33 72 -30 141 6
125 77 245 185 313 83 52 165 77 318 96 6 0 49 -4 95 -9z m-332 -1424 c74 -31
176 -53 283 -62 l86 -6 27 -58 c28 -58 93 -136 154 -181 l32 -25 15 -184 c18
-231 19 -314 3 -328 -27 -22 -599 -128 -649 -120 -21 3 -21 4 -22 495 -1 271
2 493 6 493 4 0 33 -11 65 -24z m-3300 -493 c-1 -255 -5 -466 -8 -468 -13 -8
-433 76 -582 116 -37 9 -37 10 -33 52 3 23 12 121 20 217 21 235 16 220 80
254 66 34 150 122 190 198 l29 56 85 7 c48 4 113 15 146 24 33 10 64 16 68 13
4 -2 6 -213 5 -469z m1622 -43 c27 -27 25 -61 -7 -118 -27 -49 -27 -82 1 -82
36 0 96 104 96 165 0 37 20 55 60 55 33 0 95 -38 113 -70 23 -38 21 -112 -2
-159 -20 -38 -81 -100 -122 -121 -20 -11 -21 -11 -15 11 18 67 18 69 2 75 -23
9 -49 -17 -83 -82 -29 -57 -52 -71 -96 -60 -42 10 -79 48 -108 110 -35 74 -38
149 -9 213 33 74 125 108 170 63z m-300 -109 c0 -5 -10 -11 -23 -15 -29 -7
-194 -110 -228 -142 l-25 -24 -457 0 c-521 0 -477 -9 -477 95 0 105 -64 95
615 95 342 0 595 -4 595 -9z m1423 -11 c32 -46 113 -45 138 1 8 17 22 19 109
19 116 0 120 -3 120 -96 0 -100 27 -94 -424 -94 l-391 1 -65 49 c-36 28 -102
69 -147 91 -46 23 -83 43 -83 45 0 2 164 4 364 4 351 0 365 -1 379 -20z
m-1398 -139 c3 -22 22 -63 40 -93 28 -44 32 -55 21 -68 -7 -8 -57 -67 -111
-130 -120 -143 -139 -160 -173 -160 -37 0 -140 50 -179 88 -62 57 -45 87 132
235 72 60 232 167 250 167 8 0 16 -17 20 -39z m776 -30 c154 -102 309 -241
309 -277 0 -42 -157 -144 -219 -144 -30 0 -57 26 -225 217 l-107 122 40 40
c21 21 45 55 52 75 8 21 20 36 29 36 10 0 64 -31 121 -69z M4660 8406 c-224
-35 -389 -104 -536 -226 -95 -79 -273 -287 -817 -950 -103 -126 -133 -169
-126 -181 4 -9 45 -56 91 -106 46 -49 186 -200 311 -336 126 -135 255 -266
288 -291 71 -53 181 -98 304 -123 71 -14 138 -18 310 -18 249 0 325 12 452 70
111 51 200 125 433 361 228 231 285 281 361 320 140 71 386 106 593 86 282
-28 391 -86 650 -345 229 -229 336 -326 421 -378 140 -87 282 -119 523 -119
311 0 514 53 644 170 57 51 656 690 671 716 13 22 -383 518 -709 889 -195 222
-257 276 -393 345 -315 158 -766 171 -1029 30 -100 -54 -140 -86 -337 -273
-244 -231 -302 -257 -570 -257 -67 0 -151 7 -190 15 -121 26 -164 55 -355 239
-96 93 -201 189 -234 213 -78 57 -183 108 -281 134 -102 27 -348 35 -475 15z
m308 -720 c208 -56 329 -278 264 -484 -69 -218 -320 -325 -526 -223 -148 73
-226 222 -205 395 27 221 249 370 467 312z m2728 -31 c64 -33 86 -51 126 -103
62 -81 82 -148 76 -256 -7 -143 -88 -264 -216 -324 -50 -24 -69 -27 -157 -27
-89 0 -107 3 -163 29 -71 33 -146 108 -181 179 -100 207 10 461 232 533 25 8
75 13 123 11 73 -2 90 -6 160 -42z M4785 7506 c-38 -17 -90 -72 -104 -109 -6
-16 -11 -53 -11 -84 0 -151 153 -242 293 -174 67 32 100 85 105 166 6 90 -31
155 -110 196 -44 22 -128 25 -173 5z M7435 7504 c-97 -50 -144 -178 -99 -267
48 -96 133 -138 233 -116 183 39 218 288 52 376 -53 28 -140 31 -186 7z M6090
6690 c-171 -16 -245 -51 -271 -127 -14 -45 -4 -95 33 -166 36 -67 139 -168
204 -200 43 -20 44 -22 44 -69 0 -41 -5 -52 -36 -82 -57 -56 -98 -71 -189 -71
-94 1 -135 18 -220 95 -67 61 -101 65 -146 21 -47 -48 -41 -81 32 -156 167
-174 409 -200 603 -65 l56 40 65 -45 c137 -93 294 -107 445 -39 111 50 210
148 210 208 0 38 -49 86 -89 86 -23 0 -45 -13 -87 -51 -83 -75 -148 -102 -232
-97 -78 5 -129 27 -184 78 -33 32 -38 43 -38 81 0 43 1 44 56 73 126 66 234
215 234 322 0 102 -70 145 -266 164 -109 10 -103 10 -224 0z M10930 6226
c-132 -28 -325 -121 -388 -189 l-23 -24 108 -28 c268 -68 541 -209 783 -403
105 -85 286 -262 340 -335 19 -25 38 -47 43 -47 4 0 6 84 4 188 -3 150 -8 202
-25 264 -48 175 -104 278 -212 389 -81 82 -163 133 -270 169 -83 28 -265 36
-360 16z M9925 5116 l-150 -306 90 -36 c470 -190 997 -652 1307 -1144 l56 -90
39 62 c114 182 235 424 308 612 38 99 38 99 20 132 -75 140 -407 500 -580 631
-194 146 -392 260 -580 336 -107 43 -255 89 -325 102 l-35 6 -150 -305z M5020
2985 l0 -1055 460 0 460 0 0 1055 0 1055 -460 0 -460 0 0 -1055z m881 1013 c7
-17 7 -2018 0 -2023 -14 -8 -582 -14 -723 -7 l-118 5 0 1014 0 1013 420 0
c231 0 420 -1 421 -2z M5298 3705 c-42 -47 -45 -57 -23 -75 13 -11 20 -9 41
11 14 13 35 37 46 52 20 27 20 29 2 42 -11 8 -21 14 -24 14 -3 -1 -22 -20 -42
-44z M5401 3694 c-20 -47 -21 -58 -10 -65 19 -12 25 -11 39 6 18 22 30 18 30
-9 0 -21 -6 -25 -32 -28 -25 -2 -34 -8 -36 -25 -3 -20 1 -23 32 -23 l36 0 0
-75 c0 -43 -4 -75 -10 -75 -6 0 -10 27 -10 61 0 57 -1 60 -22 57 -21 -3 -24
-10 -30 -88 -4 -46 -5 -86 -3 -88 6 -6 136 19 157 29 21 11 12 50 -11 47 -11
-2 -16 4 -16 22 0 18 5 24 18 22 12 -2 17 4 17 23 0 18 -5 25 -20 25 -13 0
-20 7 -20 20 0 15 7 20 26 20 21 0 25 4 22 23 -2 14 -11 23 -25 25 -31 5 -33
52 -3 52 15 0 20 7 20 24 0 22 -5 25 -42 28 -35 2 -42 6 -40 21 2 9 -1 17 -7
17 -5 0 -16 2 -23 5 -10 4 -21 -12 -37 -51z M5577 3714 c-4 -4 -7 -97 -7 -206
l0 -198 25 0 c24 0 25 3 25 55 0 30 5 55 10 55 6 0 10 -9 10 -20 0 -14 7 -20
24 -20 43 0 47 17 44 181 l-3 154 -60 3 c-34 2 -64 0 -68 -4z m81 -162 c3
-107 2 -112 -18 -112 -19 0 -20 6 -20 108 0 60 3 112 7 116 20 20 28 -9 31
-112z M5329 3608 c-12 -18 -35 -47 -51 -64 -26 -28 -28 -34 -16 -53 8 -13 19
-19 30 -15 16 5 18 -3 18 -81 0 -84 1 -86 23 -83 21 3 22 8 27 128 3 70 10
134 17 146 10 18 9 24 -6 38 -18 16 -20 15 -42 -16z M5308 2998 c-3 -125 -7
-160 -23 -190 -15 -31 -16 -40 -5 -53 7 -8 19 -15 27 -15 16 0 52 74 53 108 0
20 5 22 50 22 l49 0 3 -62 c3 -59 4 -63 28 -63 24 0 25 4 28 63 l3 62 50 0 50
0 -3 -37 c-3 -33 -7 -38 -30 -41 -31 -4 -32 -5 -18 -33 12 -22 78 -27 98 -7 9
9 12 68 12 205 l0 193 -184 0 -184 0 -4 -152z m150 70 c3 -27 2 -28 -42 -28
-42 0 -46 2 -46 23 0 31 4 34 48 33 33 -1 37 -4 40 -28z m160 0 c3 -27 2 -28
-47 -28 -47 0 -51 2 -51 23 0 32 4 34 53 33 38 -1 42 -4 45 -28z m-160 -110
c-3 -31 -5 -33 -43 -33 -38 0 -40 2 -43 33 -3 32 -3 32 43 32 46 0 46 0 43
-32z m162 -4 l0 -35 -47 3 c-37 2 -49 7 -51 21 -7 36 6 47 53 47 45 0 45 0 45
-36z M5336 2592 c-3 -3 -6 -20 -6 -39 0 -30 -3 -33 -30 -33 l-30 0 0 -130 c0
-123 1 -130 20 -130 19 0 20 7 20 99 0 56 4 103 10 106 7 4 10 -48 10 -149 l0
-156 25 0 c24 0 25 3 25 55 0 51 10 69 25 45 12 -20 44 9 47 43 5 55 23 35 26
-30 2 -51 0 -63 -12 -63 -20 0 -28 -14 -20 -35 6 -13 15 -16 43 -11 75 12 113
27 107 41 -8 23 12 27 24 5 6 -11 23 -26 39 -35 26 -13 30 -13 46 5 16 18 15
20 -17 49 l-33 30 23 16 c16 12 21 22 16 41 -5 18 -2 24 10 24 9 0 16 8 16 20
0 18 -7 20 -67 22 -114 3 -118 3 -118 13 0 6 33 11 73 13 64 3 72 5 72 22 0
18 -7 20 -70 20 -40 0 -70 4 -70 10 0 6 30 10 70 10 63 0 70 2 70 20 0 18 -7
20 -70 20 -56 0 -70 3 -70 15 0 12 15 15 75 15 68 0 75 2 75 20 0 19 -7 20
-105 20 l-104 0 -3 -97 c-3 -112 -20 -132 -28 -33 -5 65 -5 65 -37 68 -30 3
-33 6 -33 36 0 25 -5 35 -19 39 -11 3 -22 2 -25 -1z m64 -202 c0 -47 -4 -80
-10 -80 -11 0 -14 142 -3 153 12 13 13 7 13 -73z m170 -96 c26 -60 26 -64 -10
-64 -29 0 -30 1 -30 48 0 42 5 62 16 62 2 0 12 -21 24 -46z m90 36 c0 -13 -29
-32 -40 -25 -19 12 -10 33 15 33 14 0 25 -4 25 -8z M5747 1302 c-34 -35 -49
-72 -28 -72 5 0 27 17 50 38 31 27 41 42 36 55 -10 24 -16 22 -58 -21z"/>
</g>
<rect x="494" y="844" width="110" height="226" fill="#000000"/>
<rect x="500" y="850" width="98" height="214" fill="#F8ECCB"/>
<rect x="506" y="856" width="84" height="200" fill="#000000"/>
<rect x="510" y="860" width="76" height="192" fill="#F8ECCB"/>
<text x="548" y="895" text-anchor="middle" dominant-baseline="central" fill="#000000" font-family="sans-serif" font-size="42" font-weight="600">御</text>
<text x="548" y="956" text-anchor="middle" dominant-baseline="central" fill="#000000" font-family="sans-serif" font-size="42" font-weight="600">用</text>
<text x="548" y="1017" text-anchor="middle" dominant-baseline="central" fill="#000000" font-family="sans-serif" font-size="42" font-weight="600">帳</text>
</svg>
